<svg xmlns="http://www.w3.org/2000/svg" width="1400" height="1400" viewBox="0 0 1400 1400"><defs><clipPath id="disc"><circle cx="700" cy="700" r="679"/></clipPath></defs><rect width="1400" height="1400" fill="#ffffff"/><circle cx="700" cy="700" r="679" fill="#ffffff"/><g clip-path="url(#disc)"><path d="M 778.14 63.58 A 641.2 641.2 0 0 1 1212.09 314.12" fill="none" stroke="#F07828" stroke-width="54" stroke-linecap="butt"/><path d="M 1290.23 449.46 A 641.2 641.2 0 0 1 1290.23 950.54" fill="none" stroke="#F07828" stroke-width="54" stroke-linecap="butt"/><path d="M 1212.09 1085.88 A 641.2 641.2 0 0 1 778.14 1336.42" fill="none" stroke="#F07828" stroke-width="54" stroke-linecap="butt"/><path d="M 621.86 1336.42 A 641.2 641.2 0 0 1 187.91 1085.88" fill="none" stroke="#F07828" stroke-width="54" stroke-linecap="butt"/><path d="M 109.77 950.54 A 641.2 641.2 0 0 1 109.77 449.46" fill="none" stroke="#F07828" stroke-width="54" stroke-linecap="butt"/><path d="M 187.91 314.12 A 641.2 641.2 0 0 1 621.86 63.58" fill="none" stroke="#F07828" stroke-width="54" stroke-linecap="butt"/><circle cx="700" cy="700" r="588" fill="none" stroke="#E86A1C" stroke-width="8"/><polygon points="808.25,637.50 808.25,762.50 700.00,825.00 591.75,762.50 591.75,637.50 700.00,575.00" fill="#1a1a1a"/><polygon points="724.95,382.10 724.95,440.10 674.72,469.10 624.50,440.10 624.50,382.10 674.72,353.10" fill="#ffffff" stroke="#1a1a1a" stroke-width="16"/><circle cx="674.7" cy="411.1" r="14" fill="#1a1a1a"/><polygon points="1004.17,848.81 1004.17,906.81 953.94,935.81 903.71,906.81 903.71,848.81 953.94,819.81" fill="#ffffff" stroke="#1a1a1a" stroke-width="16"/><circle cx="953.9" cy="877.8" r="14" fill="#1a1a1a"/><polygon points="487.40,793.56 487.40,851.56 437.17,880.56 386.94,851.56 386.94,793.56 437.17,764.56" fill="#ffffff" stroke="#1a1a1a" stroke-width="16"/><circle cx="437.2" cy="822.6" r="14" fill="#1a1a1a"/><circle cx="685.0" cy="455.0" r="16" fill="#1a1a1a"/><circle cx="750.0" cy="430.0" r="14" fill="#1a1a1a"/><circle cx="800.0" cy="470.0" r="16" fill="#1a1a1a"/><circle cx="770.0" cy="510.0" r="15" fill="#1a1a1a"/><circle cx="620.0" cy="505.0" r="14" fill="#1a1a1a"/><circle cx="560.0" cy="600.0" r="15" fill="#1a1a1a"/><circle cx="505.0" cy="655.0" r="11" fill="#1a1a1a"/><circle cx="470.0" cy="720.0" r="12" fill="#1a1a1a"/><circle cx="525.0" cy="775.0" r="11" fill="#1a1a1a"/><circle cx="485.0" cy="825.0" r="16" fill="#1a1a1a"/><circle cx="550.0" cy="875.0" r="12" fill="#1a1a1a"/><circle cx="840.0" cy="610.0" r="14" fill="#1a1a1a"/><circle cx="890.0" cy="665.0" r="12" fill="#1a1a1a"/><circle cx="925.0" cy="725.0" r="15" fill="#1a1a1a"/><circle cx="875.0" cy="780.0" r="16" fill="#1a1a1a"/><circle cx="915.0" cy="830.0" r="18" fill="#1a1a1a"/><circle cx="950.0" cy="800.0" r="12" fill="#1a1a1a"/><circle cx="880.0" cy="880.0" r="11" fill="#1a1a1a"/><circle cx="810.0" cy="915.0" r="19" fill="#1a1a1a"/><circle cx="730.0" cy="925.0" r="11" fill="#1a1a1a"/><circle cx="660.0" cy="910.0" r="11" fill="#1a1a1a"/><circle cx="790.0" cy="560.0" r="19" fill="#1a1a1a"/><circle cx="640.0" cy="800.0" r="18" fill="#1a1a1a"/><circle cx="720.0" cy="855.0" r="13" fill="#1a1a1a"/></g></svg>