<svg xmlns="http://www.w3.org/2000/svg" width="1200" height="1200" viewBox="0 0 1200 1200"><defs><clipPath id="disc"><circle cx="600" cy="600" r="500"/></clipPath></defs><rect width="100%" height="100%" fill="#f7f7f5"/><circle cx="600" cy="600" r="588" fill="none" stroke="#E86B1A" stroke-width="28"/><circle cx="600" cy="600" r="546" fill="none" stroke="#ffffff" stroke-width="6"/><circle cx="600" cy="600" r="504" fill="none" stroke="#111111" stroke-width="2.5"/><path d="M 929.2328744655005 129.80672657811868 A 574 574 0 0 1 929.2328744655005 1070.1932734218813" fill="none" stroke="#C9A227" stroke-width="8" stroke-linecap="round" opacity="0.85"/><path d="M 270.7671255344995 1070.1932734218813 A 574 574 0 0 1 270.76712553449937 129.80672657811886" fill="none" stroke="#C9A227" stroke-width="8" stroke-linecap="round" opacity="0.85"/><circle cx="600" cy="600" r="499" fill="#f7f7f5"/><g clip-path="url(#disc)"><polygon points="568.49,536.82 568.49,541.34 564.58,543.59 560.67,541.34 560.67,536.82 564.58,534.56" fill="#111111" opacity="0.12"/><polygon points="592.11,536.82 592.11,541.34 588.19,543.59 584.28,541.34 584.28,536.82 588.19,534.56" fill="#111111" opacity="0.12"/><polygon points="615.72,536.82 615.72,541.34 611.81,543.59 607.89,541.34 607.89,536.82 611.81,534.56" fill="#111111" opacity="0.12"/><polygon points="639.33,536.82 639.33,541.34 635.42,543.59 631.51,541.34 631.51,536.82 635.42,534.56" fill="#111111" opacity="0.12"/><polygon points="556.69,557.13 556.69,561.64 552.77,563.90 548.86,561.64 548.86,557.13 552.77,554.87" fill="#111111" opacity="0.12"/><polygon points="651.14,557.13 651.14,561.64 647.23,563.90 643.31,561.64 643.31,557.13 647.23,554.87" fill="#111111" opacity="0.12"/><polygon points="544.88,577.43 544.88,581.95 540.97,584.21 537.05,581.95 537.05,577.43 540.97,575.18" fill="#111111" opacity="0.12"/><polygon points="662.95,577.43 662.95,581.95 659.03,584.21 655.12,581.95 655.12,577.43 659.03,575.18" fill="#111111" opacity="0.12"/><polygon points="533.07,597.74 533.07,602.26 529.16,604.52 525.25,602.26 525.25,597.74 529.16,595.48" fill="#111111" opacity="0.12"/><polygon points="674.75,597.74 674.75,602.26 670.84,604.52 666.93,602.26 666.93,597.74 670.84,595.48" fill="#111111" opacity="0.12"/><polygon points="544.88,618.05 544.88,622.57 540.97,624.82 537.05,622.57 537.05,618.05 540.97,615.79" fill="#111111" opacity="0.12"/><polygon points="662.95,618.05 662.95,622.57 659.03,624.82 655.12,622.57 655.12,618.05 659.03,615.79" fill="#111111" opacity="0.12"/><polygon points="556.69,638.36 556.69,642.87 552.77,645.13 548.86,642.87 548.86,638.36 552.77,636.10" fill="#111111" opacity="0.12"/><polygon points="651.14,638.36 651.14,642.87 647.23,645.13 643.31,642.87 643.31,638.36 647.23,636.10" fill="#111111" opacity="0.12"/><polygon points="568.49,658.66 568.49,663.18 564.58,665.44 560.67,663.18 560.67,658.66 564.58,656.41" fill="#111111" opacity="0.12"/><polygon points="592.11,658.66 592.11,663.18 588.19,665.44 584.28,663.18 584.28,658.66 588.19,656.41" fill="#111111" opacity="0.12"/><polygon points="615.72,658.66 615.72,663.18 611.81,665.44 607.89,663.18 607.89,658.66 611.81,656.41" fill="#111111" opacity="0.12"/><polygon points="639.33,658.66 639.33,663.18 635.42,665.44 631.51,663.18 631.51,658.66 635.42,656.41" fill="#111111" opacity="0.12"/><circle cx="250.93" cy="250.93" r="65.71" fill="#111111"/><circle cx="250.93" cy="250.93" r="45.17" fill="#f7f7f5"/><circle cx="250.93" cy="250.93" r="22.59" fill="#111111"/><circle cx="949.07" cy="250.93" r="65.71" fill="#111111"/><circle cx="949.07" cy="250.93" r="45.17" fill="#f7f7f5"/><circle cx="949.07" cy="250.93" r="22.59" fill="#111111"/><circle cx="250.93" cy="949.07" r="65.71" fill="#111111"/><circle cx="250.93" cy="949.07" r="45.17" fill="#f7f7f5"/><circle cx="250.93" cy="949.07" r="22.59" fill="#111111"/><circle cx="415.20" cy="189.33" r="6.98" fill="#111111"/><circle cx="456.27" cy="189.33" r="6.98" fill="#111111"/><circle cx="476.80" cy="189.33" r="6.98" fill="#111111"/><circle cx="538.40" cy="189.33" r="6.98" fill="#111111"/><circle cx="558.93" cy="189.33" r="6.98" fill="#111111"/><polygon points="606.35,185.67 606.35,193.00 600.00,196.66 593.65,193.00 593.65,185.67 600.00,182.00" fill="#111111"/><circle cx="620.53" cy="189.33" r="6.98" fill="#111111"/><circle cx="661.60" cy="189.33" r="6.98" fill="#111111"/><polygon points="688.48,185.67 688.48,193.00 682.13,196.66 675.79,193.00 675.79,185.67 682.13,182.00" fill="#111111"/><circle cx="723.20" cy="189.33" r="6.98" fill="#111111"/><circle cx="743.73" cy="189.33" r="6.98" fill="#111111"/><polygon points="770.61,185.67 770.61,193.00 764.27,196.66 757.92,193.00 757.92,185.67 764.27,182.00" fill="#111111"/><circle cx="784.80" cy="189.33" r="6.98" fill="#111111"/><polygon points="421.55,206.20 421.55,213.53 415.20,217.20 408.85,213.53 408.85,206.20 415.20,202.54" fill="#111111"/><circle cx="456.27" cy="209.87" r="6.98" fill="#111111"/><circle cx="476.80" cy="209.87" r="6.98" fill="#111111"/><circle cx="517.87" cy="209.87" r="6.98" fill="#111111"/><circle cx="558.93" cy="209.87" r="6.98" fill="#111111"/><polygon points="585.81,206.20 585.81,213.53 579.47,217.20 573.12,213.53 573.12,206.20 579.47,202.54" fill="#111111"/><circle cx="641.07" cy="209.87" r="6.98" fill="#111111"/><circle cx="723.20" cy="209.87" r="6.98" fill="#111111"/><circle cx="764.27" cy="209.87" r="6.98" fill="#111111"/><circle cx="805.33" cy="209.87" r="6.98" fill="#111111"/><polygon points="401.01,226.73 401.01,234.07 394.67,237.73 388.32,234.07 388.32,226.73 394.67,223.07" fill="#111111"/><circle cx="415.20" cy="230.40" r="6.98" fill="#111111"/><circle cx="456.27" cy="230.40" r="6.98" fill="#111111"/><circle cx="497.33" cy="230.40" r="6.98" fill="#111111"/><polygon points="565.28,226.73 565.28,234.07 558.93,237.73 552.59,234.07 552.59,226.73 558.93,223.07" fill="#111111"/><circle cx="579.47" cy="230.40" r="6.98" fill="#111111"/><circle cx="620.53" cy="230.40" r="6.98" fill="#111111"/><circle cx="661.60" cy="230.40" r="6.98" fill="#111111"/><circle cx="682.13" cy="230.40" r="6.98" fill="#111111"/><circle cx="702.67" cy="230.40" r="6.98" fill="#111111"/><polygon points="729.55,226.73 729.55,234.07 723.20,237.73 716.85,234.07 716.85,226.73 723.20,223.07" fill="#111111"/><circle cx="743.73" cy="230.40" r="6.98" fill="#111111"/><circle cx="784.80" cy="230.40" r="6.98" fill="#111111"/><circle cx="825.87" cy="230.40" r="6.98" fill="#111111"/><circle cx="846.40" cy="230.40" r="6.98" fill="#111111"/><polygon points="380.48,247.27 380.48,254.60 374.13,258.26 367.79,254.60 367.79,247.27 374.13,243.60" fill="#111111"/><circle cx="394.67" cy="250.93" r="6.98" fill="#111111"/><circle cx="476.80" cy="250.93" r="6.98" fill="#111111"/><circle cx="497.33" cy="250.93" r="6.98" fill="#111111"/><circle cx="517.87" cy="250.93" r="6.98" fill="#111111"/><polygon points="544.75,247.27 544.75,254.60 538.40,258.26 532.05,254.60 532.05,247.27 538.40,243.60" fill="#111111"/><circle cx="579.47" cy="250.93" r="6.98" fill="#111111"/><circle cx="600.00" cy="250.93" r="6.98" fill="#111111"/><circle cx="661.60" cy="250.93" r="6.98" fill="#111111"/><circle cx="682.13" cy="250.93" r="6.98" fill="#111111"/><circle cx="743.73" cy="250.93" r="6.98" fill="#111111"/><circle cx="764.27" cy="250.93" r="6.98" fill="#111111"/><circle cx="825.87" cy="250.93" r="6.98" fill="#111111"/><polygon points="359.95,267.80 359.95,275.13 353.60,278.80 347.25,275.13 347.25,267.80 353.60,264.14" fill="#111111"/><circle cx="374.13" cy="271.47" r="6.98" fill="#111111"/><polygon points="442.08,267.80 442.08,275.13 435.73,278.80 429.39,275.13 429.39,267.80 435.73,264.14" fill="#111111"/><circle cx="456.27" cy="271.47" r="6.98" fill="#111111"/><circle cx="476.80" cy="271.47" r="6.98" fill="#111111"/><polygon points="524.21,267.80 524.21,275.13 517.87,278.80 511.52,275.13 511.52,267.80 517.87,264.14" fill="#111111"/><circle cx="538.40" cy="271.47" r="6.98" fill="#111111"/><circle cx="579.47" cy="271.47" r="6.98" fill="#111111"/><circle cx="661.60" cy="271.47" r="6.98" fill="#111111"/><circle cx="743.73" cy="271.47" r="6.98" fill="#111111"/><polygon points="770.61,267.80 770.61,275.13 764.27,278.80 757.92,275.13 757.92,267.80 764.27,264.14" fill="#111111"/><circle cx="784.80" cy="271.47" r="6.98" fill="#111111"/><circle cx="825.87" cy="271.47" r="6.98" fill="#111111"/><circle cx="435.73" cy="292.00" r="6.98" fill="#111111"/><circle cx="476.80" cy="292.00" r="6.98" fill="#111111"/><polygon points="503.68,288.33 503.68,295.67 497.33,299.33 490.99,295.67 490.99,288.33 497.33,284.67" fill="#111111"/><circle cx="517.87" cy="292.00" r="6.98" fill="#111111"/><circle cx="784.80" cy="292.00" r="6.98" fill="#111111"/><circle cx="805.33" cy="292.00" r="6.98" fill="#111111"/><polygon points="832.21,288.33 832.21,295.67 825.87,299.33 819.52,295.67 819.52,288.33 825.87,284.67" fill="#111111"/><circle cx="846.40" cy="292.00" r="6.98" fill="#111111"/><circle cx="353.60" cy="312.53" r="6.98" fill="#111111"/><polygon points="401.01,308.87 401.01,316.20 394.67,319.86 388.32,316.20 388.32,308.87 394.67,305.20" fill="#111111"/><circle cx="435.73" cy="312.53" r="6.98" fill="#111111"/><polygon points="483.15,308.87 483.15,316.20 476.80,319.86 470.45,316.20 470.45,308.87 476.80,305.20" fill="#111111"/><circle cx="517.87" cy="312.53" r="6.98" fill="#111111"/><polygon points="565.28,308.87 565.28,316.20 558.93,319.86 552.59,316.20 552.59,308.87 558.93,305.20" fill="#111111"/><circle cx="600.00" cy="312.53" r="6.98" fill="#111111"/><polygon points="647.41,308.87 647.41,316.20 641.07,319.86 634.72,316.20 634.72,308.87 641.07,305.20" fill="#111111"/><circle cx="682.13" cy="312.53" r="6.98" fill="#111111"/><polygon points="729.55,308.87 729.55,316.20 723.20,319.86 716.85,316.20 716.85,308.87 723.20,305.20" fill="#111111"/><circle cx="764.27" cy="312.53" r="6.98" fill="#111111"/><polygon points="811.68,308.87 811.68,316.20 805.33,319.86 798.99,316.20 798.99,308.87 805.33,305.20" fill="#111111"/><circle cx="846.40" cy="312.53" r="6.98" fill="#111111"/><circle cx="353.60" cy="333.07" r="6.98" fill="#111111"/><polygon points="380.48,329.40 380.48,336.73 374.13,340.40 367.79,336.73 367.79,329.40 374.13,325.74" fill="#111111"/><circle cx="394.67" cy="333.07" r="6.98" fill="#111111"/><circle cx="415.20" cy="333.07" r="6.98" fill="#111111"/><polygon points="462.61,329.40 462.61,336.73 456.27,340.40 449.92,336.73 449.92,329.40 456.27,325.74" fill="#111111"/><circle cx="476.80" cy="333.07" r="6.98" fill="#111111"/><circle cx="497.33" cy="333.07" r="6.98" fill="#111111"/><circle cx="517.87" cy="333.07" r="6.98" fill="#111111"/><circle cx="558.93" cy="333.07" r="6.98" fill="#111111"/><circle cx="579.47" cy="333.07" r="6.98" fill="#111111"/><polygon points="626.88,329.40 626.88,336.73 620.53,340.40 614.19,336.73 614.19,329.40 620.53,325.74" fill="#111111"/><circle cx="661.60" cy="333.07" r="6.98" fill="#111111"/><circle cx="682.13" cy="333.07" r="6.98" fill="#111111"/><polygon points="709.01,329.40 709.01,336.73 702.67,340.40 696.32,336.73 696.32,329.40 702.67,325.74" fill="#111111"/><circle cx="723.20" cy="333.07" r="6.98" fill="#111111"/><circle cx="764.27" cy="333.07" r="6.98" fill="#111111"/><polygon points="791.15,329.40 791.15,336.73 784.80,340.40 778.45,336.73 778.45,329.40 784.80,325.74" fill="#111111"/><circle cx="805.33" cy="333.07" r="6.98" fill="#111111"/><circle cx="230.40" cy="353.60" r="6.98" fill="#111111"/><circle cx="250.93" cy="353.60" r="6.98" fill="#111111"/><circle cx="312.53" cy="353.60" r="6.98" fill="#111111"/><circle cx="333.07" cy="353.60" r="6.98" fill="#111111"/><polygon points="359.95,349.93 359.95,357.27 353.60,360.93 347.25,357.27 347.25,349.93 353.60,346.27" fill="#111111"/><circle cx="374.13" cy="353.60" r="6.98" fill="#111111"/><circle cx="394.67" cy="353.60" r="6.98" fill="#111111"/><polygon points="442.08,349.93 442.08,357.27 435.73,360.93 429.39,357.27 429.39,349.93 435.73,346.27" fill="#111111"/><circle cx="456.27" cy="353.60" r="6.98" fill="#111111"/><circle cx="476.80" cy="353.60" r="6.98" fill="#111111"/><circle cx="538.40" cy="353.60" r="6.98" fill="#111111"/><circle cx="579.47" cy="353.60" r="6.98" fill="#111111"/><circle cx="620.53" cy="353.60" r="6.98" fill="#111111"/><circle cx="641.07" cy="353.60" r="6.98" fill="#111111"/><circle cx="661.60" cy="353.60" r="6.98" fill="#111111"/><circle cx="702.67" cy="353.60" r="6.98" fill="#111111"/><polygon points="770.61,349.93 770.61,357.27 764.27,360.93 757.92,357.27 757.92,349.93 764.27,346.27" fill="#111111"/><circle cx="784.80" cy="353.60" r="6.98" fill="#111111"/><circle cx="805.33" cy="353.60" r="6.98" fill="#111111"/><polygon points="852.75,349.93 852.75,357.27 846.40,360.93 840.05,357.27 840.05,349.93 846.40,346.27" fill="#111111"/><circle cx="866.93" cy="353.60" r="6.98" fill="#111111"/><circle cx="887.47" cy="353.60" r="6.98" fill="#111111"/><polygon points="934.88,349.93 934.88,357.27 928.53,360.93 922.19,357.27 922.19,349.93 928.53,346.27" fill="#111111"/><circle cx="230.40" cy="374.13" r="6.98" fill="#111111"/><circle cx="271.47" cy="374.13" r="6.98" fill="#111111"/><circle cx="292.00" cy="374.13" r="6.98" fill="#111111"/><polygon points="421.55,370.47 421.55,377.80 415.20,381.46 408.85,377.80 408.85,370.47 415.20,366.80" fill="#111111"/><circle cx="435.73" cy="374.13" r="6.98" fill="#111111"/><polygon points="503.68,370.47 503.68,377.80 497.33,381.46 490.99,377.80 490.99,370.47 497.33,366.80" fill="#111111"/><circle cx="517.87" cy="374.13" r="6.98" fill="#111111"/><circle cx="558.93" cy="374.13" r="6.98" fill="#111111"/><circle cx="620.53" cy="374.13" r="6.98" fill="#111111"/><circle cx="702.67" cy="374.13" r="6.98" fill="#111111"/><circle cx="723.20" cy="374.13" r="6.98" fill="#111111"/><circle cx="764.27" cy="374.13" r="6.98" fill="#111111"/><circle cx="784.80" cy="374.13" r="6.98" fill="#111111"/><polygon points="832.21,370.47 832.21,377.80 825.87,381.46 819.52,377.80 819.52,370.47 825.87,366.80" fill="#111111"/><circle cx="846.40" cy="374.13" r="6.98" fill="#111111"/><circle cx="866.93" cy="374.13" r="6.98" fill="#111111"/><circle cx="887.47" cy="374.13" r="6.98" fill="#111111"/><polygon points="914.35,370.47 914.35,377.80 908.00,381.46 901.65,377.80 901.65,370.47 908.00,366.80" fill="#111111"/><circle cx="928.53" cy="374.13" r="6.98" fill="#111111"/><circle cx="969.60" cy="374.13" r="6.98" fill="#111111"/><polygon points="996.48,370.47 996.48,377.80 990.13,381.46 983.79,377.80 983.79,370.47 990.13,366.80" fill="#111111"/><circle cx="209.87" cy="394.67" r="6.98" fill="#111111"/><circle cx="250.93" cy="394.67" r="6.98" fill="#111111"/><circle cx="292.00" cy="394.67" r="6.98" fill="#111111"/><polygon points="318.88,391.00 318.88,398.33 312.53,402.00 306.19,398.33 306.19,391.00 312.53,387.34" fill="#111111"/><circle cx="333.07" cy="394.67" r="6.98" fill="#111111"/><circle cx="353.60" cy="394.67" r="6.98" fill="#111111"/><circle cx="415.20" cy="394.67" r="6.98" fill="#111111"/><circle cx="435.73" cy="394.67" r="6.98" fill="#111111"/><circle cx="456.27" cy="394.67" r="6.98" fill="#111111"/><circle cx="517.87" cy="394.67" r="6.98" fill="#111111"/><circle cx="538.40" cy="394.67" r="6.98" fill="#111111"/><circle cx="600.00" cy="394.67" r="6.98" fill="#111111"/><polygon points="647.41,391.00 647.41,398.33 641.07,402.00 634.72,398.33 634.72,391.00 641.07,387.34" fill="#111111"/><circle cx="661.60" cy="394.67" r="6.98" fill="#111111"/><circle cx="702.67" cy="394.67" r="6.98" fill="#111111"/><circle cx="764.27" cy="394.67" r="6.98" fill="#111111"/><polygon points="811.68,391.00 811.68,398.33 805.33,402.00 798.99,398.33 798.99,391.00 805.33,387.34" fill="#111111"/><circle cx="866.93" cy="394.67" r="6.98" fill="#111111"/><polygon points="893.81,391.00 893.81,398.33 887.47,402.00 881.12,398.33 881.12,391.00 887.47,387.34" fill="#111111"/><circle cx="928.53" cy="394.67" r="6.98" fill="#111111"/><polygon points="975.95,391.00 975.95,398.33 969.60,402.00 963.25,398.33 963.25,391.00 969.60,387.34" fill="#111111"/><polygon points="216.21,411.53 216.21,418.87 209.87,422.53 203.52,418.87 203.52,411.53 209.87,407.87" fill="#111111"/><polygon points="298.35,411.53 298.35,418.87 292.00,422.53 285.65,418.87 285.65,411.53 292.00,407.87" fill="#111111"/><circle cx="333.07" cy="415.20" r="6.98" fill="#111111"/><polygon points="380.48,411.53 380.48,418.87 374.13,422.53 367.79,418.87 367.79,411.53 374.13,407.87" fill="#111111"/><circle cx="435.73" cy="415.20" r="6.98" fill="#111111"/><circle cx="476.80" cy="415.20" r="6.98" fill="#111111"/><circle cx="497.33" cy="415.20" r="6.98" fill="#111111"/><circle cx="579.47" cy="415.20" r="6.98" fill="#111111"/><circle cx="600.00" cy="415.20" r="6.98" fill="#111111"/><circle cx="641.07" cy="415.20" r="6.98" fill="#111111"/><circle cx="682.13" cy="415.20" r="6.98" fill="#111111"/><polygon points="709.01,411.53 709.01,418.87 702.67,422.53 696.32,418.87 696.32,411.53 702.67,407.87" fill="#111111"/><circle cx="723.20" cy="415.20" r="6.98" fill="#111111"/><circle cx="764.27" cy="415.20" r="6.98" fill="#111111"/><circle cx="805.33" cy="415.20" r="6.98" fill="#111111"/><circle cx="846.40" cy="415.20" r="6.98" fill="#111111"/><circle cx="990.13" cy="415.20" r="6.98" fill="#111111"/><circle cx="1010.67" cy="415.20" r="6.98" fill="#111111"/><polygon points="195.68,432.07 195.68,439.40 189.33,443.06 182.99,439.40 182.99,432.07 189.33,428.40" fill="#111111"/><circle cx="209.87" cy="435.73" r="6.98" fill="#111111"/><polygon points="277.81,432.07 277.81,439.40 271.47,443.06 265.12,439.40 265.12,432.07 271.47,428.40" fill="#111111"/><circle cx="312.53" cy="435.73" r="6.98" fill="#111111"/><circle cx="333.07" cy="435.73" r="6.98" fill="#111111"/><polygon points="359.95,432.07 359.95,439.40 353.60,443.06 347.25,439.40 347.25,432.07 353.60,428.40" fill="#111111"/><circle cx="374.13" cy="435.73" r="6.98" fill="#111111"/><circle cx="394.67" cy="435.73" r="6.98" fill="#111111"/><polygon points="442.08,432.07 442.08,439.40 435.73,443.06 429.39,439.40 429.39,432.07 435.73,428.40" fill="#111111"/><circle cx="497.33" cy="435.73" r="6.98" fill="#111111"/><circle cx="538.40" cy="435.73" r="6.98" fill="#111111"/><circle cx="579.47" cy="435.73" r="6.98" fill="#111111"/><circle cx="620.53" cy="435.73" r="6.98" fill="#111111"/><circle cx="661.60" cy="435.73" r="6.98" fill="#111111"/><polygon points="688.48,432.07 688.48,439.40 682.13,443.06 675.79,439.40 675.79,432.07 682.13,428.40" fill="#111111"/><circle cx="702.67" cy="435.73" r="6.98" fill="#111111"/><circle cx="743.73" cy="435.73" r="6.98" fill="#111111"/><circle cx="784.80" cy="435.73" r="6.98" fill="#111111"/><circle cx="825.87" cy="435.73" r="6.98" fill="#111111"/><polygon points="852.75,432.07 852.75,439.40 846.40,443.06 840.05,439.40 840.05,432.07 846.40,428.40" fill="#111111"/><circle cx="887.47" cy="435.73" r="6.98" fill="#111111"/><circle cx="949.07" cy="435.73" r="6.98" fill="#111111"/><circle cx="969.60" cy="435.73" r="6.98" fill="#111111"/><circle cx="990.13" cy="435.73" r="6.98" fill="#111111"/><circle cx="209.87" cy="456.27" r="6.98" fill="#111111"/><polygon points="257.28,452.60 257.28,459.93 250.93,463.60 244.59,459.93 244.59,452.60 250.93,448.94" fill="#111111"/><circle cx="271.47" cy="456.27" r="6.98" fill="#111111"/><circle cx="476.80" cy="456.27" r="6.98" fill="#111111"/><circle cx="517.87" cy="456.27" r="6.98" fill="#111111"/><circle cx="538.40" cy="456.27" r="6.98" fill="#111111"/><circle cx="558.93" cy="456.27" r="6.98" fill="#111111"/><polygon points="585.81,452.60 585.81,459.93 579.47,463.60 573.12,459.93 573.12,452.60 579.47,448.94" fill="#111111"/><circle cx="600.00" cy="456.27" r="6.98" fill="#111111"/><circle cx="620.53" cy="456.27" r="6.98" fill="#111111"/><polygon points="667.95,452.60 667.95,459.93 661.60,463.60 655.25,459.93 655.25,452.60 661.60,448.94" fill="#111111"/><circle cx="702.67" cy="456.27" r="6.98" fill="#111111"/><circle cx="764.27" cy="456.27" r="6.98" fill="#111111"/><circle cx="784.80" cy="456.27" r="6.98" fill="#111111"/><circle cx="846.40" cy="456.27" r="6.98" fill="#111111"/><circle cx="969.60" cy="456.27" r="6.98" fill="#111111"/><circle cx="1010.67" cy="456.27" r="6.98" fill="#111111"/><circle cx="189.33" cy="476.80" r="6.98" fill="#111111"/><circle cx="250.93" cy="476.80" r="6.98" fill="#111111"/><polygon points="318.88,473.13 318.88,480.47 312.53,484.13 306.19,480.47 306.19,473.13 312.53,469.47" fill="#111111"/><circle cx="333.07" cy="476.80" r="6.98" fill="#111111"/><polygon points="401.01,473.13 401.01,480.47 394.67,484.13 388.32,480.47 388.32,473.13 394.67,469.47" fill="#111111"/><circle cx="435.73" cy="476.80" r="6.98" fill="#111111"/><polygon points="483.15,473.13 483.15,480.47 476.80,484.13 470.45,480.47 470.45,473.13 476.80,469.47" fill="#111111"/><circle cx="517.87" cy="476.80" r="6.98" fill="#111111"/><polygon points="647.41,473.13 647.41,480.47 641.07,484.13 634.72,480.47 634.72,473.13 641.07,469.47" fill="#111111"/><circle cx="682.13" cy="476.80" r="6.98" fill="#111111"/><circle cx="702.67" cy="476.80" r="6.98" fill="#111111"/><circle cx="743.73" cy="476.80" r="6.98" fill="#111111"/><circle cx="764.27" cy="476.80" r="6.98" fill="#111111"/><circle cx="825.87" cy="476.80" r="6.98" fill="#111111"/><circle cx="846.40" cy="476.80" r="6.98" fill="#111111"/><polygon points="893.81,473.13 893.81,480.47 887.47,484.13 881.12,480.47 881.12,473.13 887.47,469.47" fill="#111111"/><circle cx="928.53" cy="476.80" r="6.98" fill="#111111"/><circle cx="949.07" cy="476.80" r="6.98" fill="#111111"/><polygon points="975.95,473.13 975.95,480.47 969.60,484.13 963.25,480.47 963.25,473.13 969.60,469.47" fill="#111111"/><circle cx="990.13" cy="476.80" r="6.98" fill="#111111"/><circle cx="1010.67" cy="476.80" r="6.98" fill="#111111"/><circle cx="189.33" cy="497.33" r="6.98" fill="#111111"/><circle cx="271.47" cy="497.33" r="6.98" fill="#111111"/><polygon points="298.35,493.67 298.35,501.00 292.00,504.66 285.65,501.00 285.65,493.67 292.00,490.00" fill="#111111"/><circle cx="333.07" cy="497.33" r="6.98" fill="#111111"/><polygon points="380.48,493.67 380.48,501.00 374.13,504.66 367.79,501.00 367.79,493.67 374.13,490.00" fill="#111111"/><circle cx="497.33" cy="497.33" r="6.98" fill="#111111"/><circle cx="558.93" cy="497.33" r="6.98" fill="#111111"/><circle cx="579.47" cy="497.33" r="6.98" fill="#111111"/><circle cx="641.07" cy="497.33" r="6.98" fill="#111111"/><circle cx="661.60" cy="497.33" r="6.98" fill="#111111"/><circle cx="682.13" cy="497.33" r="6.98" fill="#111111"/><circle cx="764.27" cy="497.33" r="6.98" fill="#111111"/><circle cx="805.33" cy="497.33" r="6.98" fill="#111111"/><circle cx="887.47" cy="497.33" r="6.98" fill="#111111"/><circle cx="928.53" cy="497.33" r="6.98" fill="#111111"/><polygon points="955.41,493.67 955.41,501.00 949.07,504.66 942.72,501.00 942.72,493.67 949.07,490.00" fill="#111111"/><polygon points="195.68,514.20 195.68,521.53 189.33,525.20 182.99,521.53 182.99,514.20 189.33,510.54" fill="#111111"/><circle cx="209.87" cy="517.87" r="6.98" fill="#111111"/><circle cx="292.00" cy="517.87" r="6.98" fill="#111111"/><circle cx="312.53" cy="517.87" r="6.98" fill="#111111"/><polygon points="359.95,514.20 359.95,521.53 353.60,525.20 347.25,521.53 347.25,514.20 353.60,510.54" fill="#111111"/><circle cx="374.13" cy="517.87" r="6.98" fill="#111111"/><circle cx="394.67" cy="517.87" r="6.98" fill="#111111"/><circle cx="415.20" cy="517.87" r="6.98" fill="#111111"/><polygon points="442.08,514.20 442.08,521.53 435.73,525.20 429.39,521.53 429.39,514.20 435.73,510.54" fill="#111111"/><circle cx="476.80" cy="517.87" r="6.98" fill="#111111"/><circle cx="497.33" cy="517.87" r="6.98" fill="#111111"/><polygon points="524.21,514.20 524.21,521.53 517.87,525.20 511.52,521.53 511.52,514.20 517.87,510.54" fill="#111111"/><circle cx="538.40" cy="517.87" r="6.98" fill="#111111"/><circle cx="558.93" cy="517.87" r="6.98" fill="#111111"/><circle cx="579.47" cy="517.87" r="6.98" fill="#111111"/><circle cx="620.53" cy="517.87" r="6.98" fill="#111111"/><circle cx="641.07" cy="517.87" r="6.98" fill="#111111"/><polygon points="688.48,514.20 688.48,521.53 682.13,525.20 675.79,521.53 675.79,514.20 682.13,510.54" fill="#111111"/><circle cx="702.67" cy="517.87" r="6.98" fill="#111111"/><circle cx="723.20" cy="517.87" r="6.98" fill="#111111"/><circle cx="743.73" cy="517.87" r="6.98" fill="#111111"/><circle cx="784.80" cy="517.87" r="6.98" fill="#111111"/><circle cx="805.33" cy="517.87" r="6.98" fill="#111111"/><polygon points="934.88,514.20 934.88,521.53 928.53,525.20 922.19,521.53 922.19,514.20 928.53,510.54" fill="#111111"/><polygon points="1017.01,514.20 1017.01,521.53 1010.67,525.20 1004.32,521.53 1004.32,514.20 1010.67,510.54" fill="#111111"/><circle cx="230.40" cy="538.40" r="6.98" fill="#111111"/><circle cx="292.00" cy="538.40" r="6.98" fill="#111111"/><polygon points="339.41,534.73 339.41,542.07 333.07,545.73 326.72,542.07 326.72,534.73 333.07,531.07" fill="#111111"/><circle cx="374.13" cy="538.40" r="6.98" fill="#111111"/><circle cx="394.67" cy="538.40" r="6.98" fill="#111111"/><polygon points="421.55,534.73 421.55,542.07 415.20,545.73 408.85,542.07 408.85,534.73 415.20,531.07" fill="#111111"/><circle cx="435.73" cy="538.40" r="6.98" fill="#111111"/><circle cx="456.27" cy="538.40" r="6.98" fill="#111111"/><circle cx="476.80" cy="538.40" r="6.98" fill="#111111"/><circle cx="538.40" cy="538.40" r="6.98" fill="#111111"/><polygon points="667.95,534.73 667.95,542.07 661.60,545.73 655.25,542.07 655.25,534.73 661.60,531.07" fill="#111111"/><circle cx="682.13" cy="538.40" r="6.98" fill="#111111"/><circle cx="866.93" cy="538.40" r="6.98" fill="#111111"/><polygon points="914.35,534.73 914.35,542.07 908.00,545.73 901.65,542.07 901.65,534.73 908.00,531.07" fill="#111111"/><circle cx="209.87" cy="558.93" r="6.98" fill="#111111"/><circle cx="250.93" cy="558.93" r="6.98" fill="#111111"/><circle cx="292.00" cy="558.93" r="6.98" fill="#111111"/><polygon points="318.88,555.27 318.88,562.60 312.53,566.26 306.19,562.60 306.19,555.27 312.53,551.60" fill="#111111"/><circle cx="353.60" cy="558.93" r="6.98" fill="#111111"/><circle cx="415.20" cy="558.93" r="6.98" fill="#111111"/><circle cx="435.73" cy="558.93" r="6.98" fill="#111111"/><circle cx="517.87" cy="558.93" r="6.98" fill="#111111"/><circle cx="682.13" cy="558.93" r="6.98" fill="#111111"/><circle cx="702.67" cy="558.93" r="6.98" fill="#111111"/><polygon points="729.55,555.27 729.55,562.60 723.20,566.26 716.85,562.60 716.85,555.27 723.20,551.60" fill="#111111"/><circle cx="743.73" cy="558.93" r="6.98" fill="#111111"/><circle cx="764.27" cy="558.93" r="6.98" fill="#111111"/><polygon points="811.68,555.27 811.68,562.60 805.33,566.26 798.99,562.60 798.99,555.27 805.33,551.60" fill="#111111"/><circle cx="866.93" cy="558.93" r="6.98" fill="#111111"/><circle cx="928.53" cy="558.93" r="6.98" fill="#111111"/><polygon points="975.95,555.27 975.95,562.60 969.60,566.26 963.25,562.60 963.25,555.27 969.60,551.60" fill="#111111"/><circle cx="189.33" cy="579.47" r="6.98" fill="#111111"/><circle cx="250.93" cy="579.47" r="6.98" fill="#111111"/><circle cx="271.47" cy="579.47" r="6.98" fill="#111111"/><polygon points="298.35,575.80 298.35,583.13 292.00,586.80 285.65,583.13 285.65,575.80 292.00,572.14" fill="#111111"/><circle cx="333.07" cy="579.47" r="6.98" fill="#111111"/><circle cx="415.20" cy="579.47" r="6.98" fill="#111111"/><circle cx="435.73" cy="579.47" r="6.98" fill="#111111"/><polygon points="462.61,575.80 462.61,583.13 456.27,586.80 449.92,583.13 449.92,575.80 456.27,572.14" fill="#111111"/><circle cx="497.33" cy="579.47" r="6.98" fill="#111111"/><circle cx="517.87" cy="579.47" r="6.98" fill="#111111"/><circle cx="723.20" cy="579.47" r="6.98" fill="#111111"/><circle cx="743.73" cy="579.47" r="6.98" fill="#111111"/><circle cx="764.27" cy="579.47" r="6.98" fill="#111111"/><polygon points="791.15,575.80 791.15,583.13 784.80,586.80 778.45,583.13 778.45,575.80 784.80,572.14" fill="#111111"/><circle cx="805.33" cy="579.47" r="6.98" fill="#111111"/><polygon points="873.28,575.80 873.28,583.13 866.93,586.80 860.59,583.13 860.59,575.80 866.93,572.14" fill="#111111"/><circle cx="908.00" cy="579.47" r="6.98" fill="#111111"/><polygon points="955.41,575.80 955.41,583.13 949.07,586.80 942.72,583.13 942.72,575.80 949.07,572.14" fill="#111111"/><circle cx="969.60" cy="579.47" r="6.98" fill="#111111"/><circle cx="990.13" cy="579.47" r="6.98" fill="#111111"/><circle cx="230.40" cy="600.00" r="6.98" fill="#111111"/><circle cx="312.53" cy="600.00" r="6.98" fill="#111111"/><polygon points="359.95,596.33 359.95,603.67 353.60,607.33 347.25,603.67 347.25,596.33 353.60,592.67" fill="#111111"/><circle cx="394.67" cy="600.00" r="6.98" fill="#111111"/><circle cx="415.20" cy="600.00" r="6.98" fill="#111111"/><polygon points="442.08,596.33 442.08,603.67 435.73,607.33 429.39,603.67 429.39,596.33 435.73,592.67" fill="#111111"/><circle cx="456.27" cy="600.00" r="6.98" fill="#111111"/><circle cx="476.80" cy="600.00" r="6.98" fill="#111111"/><polygon points="524.21,596.33 524.21,603.67 517.87,607.33 511.52,603.67 511.52,596.33 517.87,592.67" fill="#111111"/><circle cx="702.67" cy="600.00" r="6.98" fill="#111111"/><circle cx="723.20" cy="600.00" r="6.98" fill="#111111"/><circle cx="743.73" cy="600.00" r="6.98" fill="#111111"/><polygon points="770.61,596.33 770.61,603.67 764.27,607.33 757.92,603.67 757.92,596.33 764.27,592.67" fill="#111111"/><circle cx="866.93" cy="600.00" r="6.98" fill="#111111"/><circle cx="887.47" cy="600.00" r="6.98" fill="#111111"/><circle cx="908.00" cy="600.00" r="6.98" fill="#111111"/><circle cx="969.60" cy="600.00" r="6.98" fill="#111111"/><circle cx="189.33" cy="620.53" r="6.98" fill="#111111"/><circle cx="209.87" cy="620.53" r="6.98" fill="#111111"/><polygon points="257.28,616.87 257.28,624.20 250.93,627.86 244.59,624.20 244.59,616.87 250.93,613.20" fill="#111111"/><circle cx="271.47" cy="620.53" r="6.98" fill="#111111"/><circle cx="374.13" cy="620.53" r="6.98" fill="#111111"/><circle cx="394.67" cy="620.53" r="6.98" fill="#111111"/><polygon points="421.55,616.87 421.55,624.20 415.20,627.86 408.85,624.20 408.85,616.87 415.20,613.20" fill="#111111"/><circle cx="476.80" cy="620.53" r="6.98" fill="#111111"/><polygon points="503.68,616.87 503.68,624.20 497.33,627.86 490.99,624.20 490.99,616.87 497.33,613.20" fill="#111111"/><circle cx="517.87" cy="620.53" r="6.98" fill="#111111"/><circle cx="682.13" cy="620.53" r="6.98" fill="#111111"/><circle cx="723.20" cy="620.53" r="6.98" fill="#111111"/><circle cx="764.27" cy="620.53" r="6.98" fill="#111111"/><polygon points="832.21,616.87 832.21,624.20 825.87,627.86 819.52,624.20 819.52,616.87 825.87,613.20" fill="#111111"/><circle cx="846.40" cy="620.53" r="6.98" fill="#111111"/><circle cx="887.47" cy="620.53" r="6.98" fill="#111111"/><circle cx="928.53" cy="620.53" r="6.98" fill="#111111"/><polygon points="996.48,616.87 996.48,624.20 990.13,627.86 983.79,624.20 983.79,616.87 990.13,613.20" fill="#111111"/><circle cx="1010.67" cy="620.53" r="6.98" fill="#111111"/><circle cx="189.33" cy="641.07" r="6.98" fill="#111111"/><circle cx="271.47" cy="641.07" r="6.98" fill="#111111"/><circle cx="292.00" cy="641.07" r="6.98" fill="#111111"/><polygon points="318.88,637.40 318.88,644.73 312.53,648.40 306.19,644.73 306.19,637.40 312.53,633.74" fill="#111111"/><circle cx="333.07" cy="641.07" r="6.98" fill="#111111"/><circle cx="435.73" cy="641.07" r="6.98" fill="#111111"/><circle cx="456.27" cy="641.07" r="6.98" fill="#111111"/><polygon points="729.55,637.40 729.55,644.73 723.20,648.40 716.85,644.73 716.85,637.40 723.20,633.74" fill="#111111"/><polygon points="811.68,637.40 811.68,644.73 805.33,648.40 798.99,644.73 798.99,637.40 805.33,633.74" fill="#111111"/><circle cx="846.40" cy="641.07" r="6.98" fill="#111111"/><circle cx="866.93" cy="641.07" r="6.98" fill="#111111"/><polygon points="975.95,637.40 975.95,644.73 969.60,648.40 963.25,644.73 963.25,637.40 969.60,633.74" fill="#111111"/><circle cx="990.13" cy="641.07" r="6.98" fill="#111111"/><polygon points="216.21,657.93 216.21,665.27 209.87,668.93 203.52,665.27 203.52,657.93 209.87,654.27" fill="#111111"/><circle cx="250.93" cy="661.60" r="6.98" fill="#111111"/><circle cx="271.47" cy="661.60" r="6.98" fill="#111111"/><polygon points="298.35,657.93 298.35,665.27 292.00,668.93 285.65,665.27 285.65,657.93 292.00,654.27" fill="#111111"/><circle cx="333.07" cy="661.60" r="6.98" fill="#111111"/><circle cx="415.20" cy="661.60" r="6.98" fill="#111111"/><polygon points="462.61,657.93 462.61,665.27 456.27,668.93 449.92,665.27 449.92,657.93 456.27,654.27" fill="#111111"/><circle cx="476.80" cy="661.60" r="6.98" fill="#111111"/><circle cx="517.87" cy="661.60" r="6.98" fill="#111111"/><circle cx="661.60" cy="661.60" r="6.98" fill="#111111"/><circle cx="743.73" cy="661.60" r="6.98" fill="#111111"/><circle cx="805.33" cy="661.60" r="6.98" fill="#111111"/><circle cx="846.40" cy="661.60" r="6.98" fill="#111111"/><polygon points="873.28,657.93 873.28,665.27 866.93,668.93 860.59,665.27 860.59,657.93 866.93,654.27" fill="#111111"/><circle cx="887.47" cy="661.60" r="6.98" fill="#111111"/><polygon points="955.41,657.93 955.41,665.27 949.07,668.93 942.72,665.27 942.72,657.93 949.07,654.27" fill="#111111"/><polygon points="195.68,678.47 195.68,685.80 189.33,689.46 182.99,685.80 182.99,678.47 189.33,674.80" fill="#111111"/><polygon points="277.81,678.47 277.81,685.80 271.47,689.46 265.12,685.80 265.12,678.47 271.47,674.80" fill="#111111"/><circle cx="312.53" cy="682.13" r="6.98" fill="#111111"/><circle cx="374.13" cy="682.13" r="6.98" fill="#111111"/><circle cx="394.67" cy="682.13" r="6.98" fill="#111111"/><polygon points="442.08,678.47 442.08,685.80 435.73,689.46 429.39,685.80 429.39,678.47 435.73,674.80" fill="#111111"/><circle cx="456.27" cy="682.13" r="6.98" fill="#111111"/><polygon points="524.21,678.47 524.21,685.80 517.87,689.46 511.52,685.80 511.52,678.47 517.87,674.80" fill="#111111"/><circle cx="558.93" cy="682.13" r="6.98" fill="#111111"/><circle cx="702.67" cy="682.13" r="6.98" fill="#111111"/><circle cx="743.73" cy="682.13" r="6.98" fill="#111111"/><circle cx="784.80" cy="682.13" r="6.98" fill="#111111"/><circle cx="825.87" cy="682.13" r="6.98" fill="#111111"/><circle cx="908.00" cy="682.13" r="6.98" fill="#111111"/><circle cx="209.87" cy="702.67" r="6.98" fill="#111111"/><circle cx="394.67" cy="702.67" r="6.98" fill="#111111"/><polygon points="421.55,699.00 421.55,706.33 415.20,710.00 408.85,706.33 408.85,699.00 415.20,695.34" fill="#111111"/><circle cx="456.27" cy="702.67" r="6.98" fill="#111111"/><circle cx="476.80" cy="702.67" r="6.98" fill="#111111"/><circle cx="517.87" cy="702.67" r="6.98" fill="#111111"/><circle cx="538.40" cy="702.67" r="6.98" fill="#111111"/><circle cx="558.93" cy="702.67" r="6.98" fill="#111111"/><polygon points="585.81,699.00 585.81,706.33 579.47,710.00 573.12,706.33 573.12,699.00 579.47,695.34" fill="#111111"/><circle cx="600.00" cy="702.67" r="6.98" fill="#111111"/><circle cx="620.53" cy="702.67" r="6.98" fill="#111111"/><circle cx="682.13" cy="702.67" r="6.98" fill="#111111"/><circle cx="723.20" cy="702.67" r="6.98" fill="#111111"/><polygon points="750.08,699.00 750.08,706.33 743.73,710.00 737.39,706.33 737.39,699.00 743.73,695.34" fill="#111111"/><circle cx="764.27" cy="702.67" r="6.98" fill="#111111"/><circle cx="805.33" cy="702.67" r="6.98" fill="#111111"/><polygon points="832.21,699.00 832.21,706.33 825.87,710.00 819.52,706.33 819.52,699.00 825.87,695.34" fill="#111111"/><circle cx="846.40" cy="702.67" r="6.98" fill="#111111"/><circle cx="887.47" cy="702.67" r="6.98" fill="#111111"/><circle cx="949.07" cy="702.67" r="6.98" fill="#111111"/><circle cx="969.60" cy="702.67" r="6.98" fill="#111111"/><polygon points="236.75,719.53 236.75,726.87 230.40,730.53 224.05,726.87 224.05,719.53 230.40,715.87" fill="#111111"/><circle cx="271.47" cy="723.20" r="6.98" fill="#111111"/><polygon points="318.88,719.53 318.88,726.87 312.53,730.53 306.19,726.87 306.19,719.53 312.53,715.87" fill="#111111"/><circle cx="333.07" cy="723.20" r="6.98" fill="#111111"/><circle cx="374.13" cy="723.20" r="6.98" fill="#111111"/><circle cx="415.20" cy="723.20" r="6.98" fill="#111111"/><circle cx="456.27" cy="723.20" r="6.98" fill="#111111"/><circle cx="497.33" cy="723.20" r="6.98" fill="#111111"/><circle cx="538.40" cy="723.20" r="6.98" fill="#111111"/><circle cx="620.53" cy="723.20" r="6.98" fill="#111111"/><circle cx="661.60" cy="723.20" r="6.98" fill="#111111"/><circle cx="682.13" cy="723.20" r="6.98" fill="#111111"/><polygon points="729.55,719.53 729.55,726.87 723.20,730.53 716.85,726.87 716.85,719.53 723.20,715.87" fill="#111111"/><circle cx="764.27" cy="723.20" r="6.98" fill="#111111"/><polygon points="811.68,719.53 811.68,726.87 805.33,730.53 798.99,726.87 798.99,719.53 805.33,715.87" fill="#111111"/><circle cx="825.87" cy="723.20" r="6.98" fill="#111111"/><circle cx="846.40" cy="723.20" r="6.98" fill="#111111"/><polygon points="893.81,719.53 893.81,726.87 887.47,730.53 881.12,726.87 881.12,719.53 887.47,715.87" fill="#111111"/><circle cx="908.00" cy="723.20" r="6.98" fill="#111111"/><circle cx="928.53" cy="723.20" r="6.98" fill="#111111"/><circle cx="949.07" cy="723.20" r="6.98" fill="#111111"/><circle cx="1010.67" cy="723.20" r="6.98" fill="#111111"/><circle cx="230.40" cy="743.73" r="6.98" fill="#111111"/><circle cx="271.47" cy="743.73" r="6.98" fill="#111111"/><polygon points="298.35,740.07 298.35,747.40 292.00,751.06 285.65,747.40 285.65,740.07 292.00,736.40" fill="#111111"/><circle cx="353.60" cy="743.73" r="6.98" fill="#111111"/><polygon points="380.48,740.07 380.48,747.40 374.13,751.06 367.79,747.40 367.79,740.07 374.13,736.40" fill="#111111"/><circle cx="394.67" cy="743.73" r="6.98" fill="#111111"/><polygon points="462.61,740.07 462.61,747.40 456.27,751.06 449.92,747.40 449.92,740.07 456.27,736.40" fill="#111111"/><circle cx="497.33" cy="743.73" r="6.98" fill="#111111"/><circle cx="558.93" cy="743.73" r="6.98" fill="#111111"/><circle cx="579.47" cy="743.73" r="6.98" fill="#111111"/><circle cx="600.00" cy="743.73" r="6.98" fill="#111111"/><circle cx="682.13" cy="743.73" r="6.98" fill="#111111"/><polygon points="709.01,740.07 709.01,747.40 702.67,751.06 696.32,747.40 696.32,740.07 702.67,736.40" fill="#111111"/><circle cx="723.20" cy="743.73" r="6.98" fill="#111111"/><circle cx="764.27" cy="743.73" r="6.98" fill="#111111"/><circle cx="825.87" cy="743.73" r="6.98" fill="#111111"/><circle cx="846.40" cy="743.73" r="6.98" fill="#111111"/><circle cx="908.00" cy="743.73" r="6.98" fill="#111111"/><polygon points="955.41,740.07 955.41,747.40 949.07,751.06 942.72,747.40 942.72,740.07 949.07,736.40" fill="#111111"/><circle cx="990.13" cy="743.73" r="6.98" fill="#111111"/><circle cx="209.87" cy="764.27" r="6.98" fill="#111111"/><circle cx="230.40" cy="764.27" r="6.98" fill="#111111"/><circle cx="250.93" cy="764.27" r="6.98" fill="#111111"/><polygon points="277.81,760.60 277.81,767.93 271.47,771.60 265.12,767.93 265.12,760.60 271.47,756.94" fill="#111111"/><circle cx="312.53" cy="764.27" r="6.98" fill="#111111"/><circle cx="374.13" cy="764.27" r="6.98" fill="#111111"/><circle cx="394.67" cy="764.27" r="6.98" fill="#111111"/><polygon points="442.08,760.60 442.08,767.93 435.73,771.60 429.39,767.93 429.39,760.60 435.73,756.94" fill="#111111"/><circle cx="456.27" cy="764.27" r="6.98" fill="#111111"/><circle cx="476.80" cy="764.27" r="6.98" fill="#111111"/><polygon points="524.21,760.60 524.21,767.93 517.87,771.60 511.52,767.93 511.52,760.60 517.87,756.94" fill="#111111"/><circle cx="558.93" cy="764.27" r="6.98" fill="#111111"/><circle cx="661.60" cy="764.27" r="6.98" fill="#111111"/><polygon points="688.48,760.60 688.48,767.93 682.13,771.60 675.79,767.93 675.79,760.60 682.13,756.94" fill="#111111"/><circle cx="702.67" cy="764.27" r="6.98" fill="#111111"/><circle cx="743.73" cy="764.27" r="6.98" fill="#111111"/><polygon points="770.61,760.60 770.61,767.93 764.27,771.60 757.92,767.93 757.92,760.60 764.27,756.94" fill="#111111"/><circle cx="825.87" cy="764.27" r="6.98" fill="#111111"/><polygon points="852.75,760.60 852.75,767.93 846.40,771.60 840.05,767.93 840.05,760.60 846.40,756.94" fill="#111111"/><circle cx="908.00" cy="764.27" r="6.98" fill="#111111"/><polygon points="934.88,760.60 934.88,767.93 928.53,771.60 922.19,767.93 922.19,760.60 928.53,756.94" fill="#111111"/><circle cx="949.07" cy="764.27" r="6.98" fill="#111111"/><circle cx="990.13" cy="764.27" r="6.98" fill="#111111"/><polygon points="1017.01,760.60 1017.01,767.93 1010.67,771.60 1004.32,767.93 1004.32,760.60 1010.67,756.94" fill="#111111"/><circle cx="230.40" cy="784.80" r="6.98" fill="#111111"/><polygon points="339.41,781.13 339.41,788.47 333.07,792.13 326.72,788.47 326.72,781.13 333.07,777.47" fill="#111111"/><circle cx="394.67" cy="784.80" r="6.98" fill="#111111"/><polygon points="421.55,781.13 421.55,788.47 415.20,792.13 408.85,788.47 408.85,781.13 415.20,777.47" fill="#111111"/><polygon points="503.68,781.13 503.68,788.47 497.33,792.13 490.99,788.47 490.99,781.13 497.33,777.47" fill="#111111"/><circle cx="558.93" cy="784.80" r="6.98" fill="#111111"/><polygon points="585.81,781.13 585.81,788.47 579.47,792.13 573.12,788.47 573.12,781.13 579.47,777.47" fill="#111111"/><circle cx="641.07" cy="784.80" r="6.98" fill="#111111"/><polygon points="667.95,781.13 667.95,788.47 661.60,792.13 655.25,788.47 655.25,781.13 661.60,777.47" fill="#111111"/><circle cx="682.13" cy="784.80" r="6.98" fill="#111111"/><circle cx="723.20" cy="784.80" r="6.98" fill="#111111"/><circle cx="764.27" cy="784.80" r="6.98" fill="#111111"/><polygon points="832.21,781.13 832.21,788.47 825.87,792.13 819.52,788.47 819.52,781.13 825.87,777.47" fill="#111111"/><circle cx="846.40" cy="784.80" r="6.98" fill="#111111"/><circle cx="866.93" cy="784.80" r="6.98" fill="#111111"/><circle cx="887.47" cy="784.80" r="6.98" fill="#111111"/><polygon points="914.35,781.13 914.35,788.47 908.00,792.13 901.65,788.47 901.65,781.13 908.00,777.47" fill="#111111"/><circle cx="949.07" cy="784.80" r="6.98" fill="#111111"/><circle cx="250.93" cy="805.33" r="6.98" fill="#111111"/><circle cx="292.00" cy="805.33" r="6.98" fill="#111111"/><polygon points="318.88,801.67 318.88,809.00 312.53,812.66 306.19,809.00 306.19,801.67 312.53,798.00" fill="#111111"/><circle cx="374.13" cy="805.33" r="6.98" fill="#111111"/><circle cx="415.20" cy="805.33" r="6.98" fill="#111111"/><circle cx="497.33" cy="805.33" r="6.98" fill="#111111"/><circle cx="517.87" cy="805.33" r="6.98" fill="#111111"/><circle cx="538.40" cy="805.33" r="6.98" fill="#111111"/><polygon points="565.28,801.67 565.28,809.00 558.93,812.66 552.59,809.00 552.59,801.67 558.93,798.00" fill="#111111"/><circle cx="620.53" cy="805.33" r="6.98" fill="#111111"/><circle cx="661.60" cy="805.33" r="6.98" fill="#111111"/><circle cx="702.67" cy="805.33" r="6.98" fill="#111111"/><polygon points="729.55,801.67 729.55,809.00 723.20,812.66 716.85,809.00 716.85,801.67 723.20,798.00" fill="#111111"/><circle cx="743.73" cy="805.33" r="6.98" fill="#111111"/><circle cx="764.27" cy="805.33" r="6.98" fill="#111111"/><polygon points="811.68,801.67 811.68,809.00 805.33,812.66 798.99,809.00 798.99,801.67 805.33,798.00" fill="#111111"/><circle cx="825.87" cy="805.33" r="6.98" fill="#111111"/><circle cx="866.93" cy="805.33" r="6.98" fill="#111111"/><polygon points="893.81,801.67 893.81,809.00 887.47,812.66 881.12,809.00 881.12,801.67 887.47,798.00" fill="#111111"/><circle cx="949.07" cy="805.33" r="6.98" fill="#111111"/><circle cx="230.40" cy="825.87" r="6.98" fill="#111111"/><circle cx="250.93" cy="825.87" r="6.98" fill="#111111"/><polygon points="298.35,822.20 298.35,829.53 292.00,833.20 285.65,829.53 285.65,822.20 292.00,818.54" fill="#111111"/><circle cx="333.07" cy="825.87" r="6.98" fill="#111111"/><circle cx="394.67" cy="825.87" r="6.98" fill="#111111"/><polygon points="462.61,822.20 462.61,829.53 456.27,833.20 449.92,829.53 449.92,822.20 456.27,818.54" fill="#111111"/><circle cx="517.87" cy="825.87" r="6.98" fill="#111111"/><polygon points="544.75,822.20 544.75,829.53 538.40,833.20 532.05,829.53 532.05,822.20 538.40,818.54" fill="#111111"/><circle cx="579.47" cy="825.87" r="6.98" fill="#111111"/><polygon points="626.88,822.20 626.88,829.53 620.53,833.20 614.19,829.53 614.19,822.20 620.53,818.54" fill="#111111"/><circle cx="641.07" cy="825.87" r="6.98" fill="#111111"/><circle cx="661.60" cy="825.87" r="6.98" fill="#111111"/><circle cx="682.13" cy="825.87" r="6.98" fill="#111111"/><circle cx="723.20" cy="825.87" r="6.98" fill="#111111"/><circle cx="805.33" cy="825.87" r="6.98" fill="#111111"/><circle cx="825.87" cy="825.87" r="6.98" fill="#111111"/><circle cx="887.47" cy="825.87" r="6.98" fill="#111111"/><circle cx="908.00" cy="825.87" r="6.98" fill="#111111"/><polygon points="955.41,822.20 955.41,829.53 949.07,833.20 942.72,829.53 942.72,822.20 949.07,818.54" fill="#111111"/><circle cx="969.60" cy="825.87" r="6.98" fill="#111111"/><circle cx="230.40" cy="846.40" r="6.98" fill="#111111"/><polygon points="277.81,842.73 277.81,850.07 271.47,853.73 265.12,850.07 265.12,842.73 271.47,839.07" fill="#111111"/><circle cx="292.00" cy="846.40" r="6.98" fill="#111111"/><circle cx="312.53" cy="846.40" r="6.98" fill="#111111"/><circle cx="333.07" cy="846.40" r="6.98" fill="#111111"/><polygon points="359.95,842.73 359.95,850.07 353.60,853.73 347.25,850.07 347.25,842.73 353.60,839.07" fill="#111111"/><circle cx="374.13" cy="846.40" r="6.98" fill="#111111"/><circle cx="415.20" cy="846.40" r="6.98" fill="#111111"/><polygon points="442.08,842.73 442.08,850.07 435.73,853.73 429.39,850.07 429.39,842.73 435.73,839.07" fill="#111111"/><circle cx="456.27" cy="846.40" r="6.98" fill="#111111"/><circle cx="476.80" cy="846.40" r="6.98" fill="#111111"/><polygon points="524.21,842.73 524.21,850.07 517.87,853.73 511.52,850.07 511.52,842.73 517.87,839.07" fill="#111111"/><circle cx="558.93" cy="846.40" r="6.98" fill="#111111"/><polygon points="606.35,842.73 606.35,850.07 600.00,853.73 593.65,850.07 593.65,842.73 600.00,839.07" fill="#111111"/><circle cx="641.07" cy="846.40" r="6.98" fill="#111111"/><circle cx="661.60" cy="846.40" r="6.98" fill="#111111"/><circle cx="702.67" cy="846.40" r="6.98" fill="#111111"/><circle cx="723.20" cy="846.40" r="6.98" fill="#111111"/><circle cx="805.33" cy="846.40" r="6.98" fill="#111111"/><polygon points="852.75,842.73 852.75,850.07 846.40,853.73 840.05,850.07 840.05,842.73 846.40,839.07" fill="#111111"/><circle cx="866.93" cy="846.40" r="6.98" fill="#111111"/><circle cx="887.47" cy="846.40" r="6.98" fill="#111111"/><circle cx="908.00" cy="846.40" r="6.98" fill="#111111"/><polygon points="934.88,842.73 934.88,850.07 928.53,853.73 922.19,850.07 922.19,842.73 928.53,839.07" fill="#111111"/><circle cx="969.60" cy="846.40" r="6.98" fill="#111111"/><circle cx="353.60" cy="866.93" r="6.98" fill="#111111"/><circle cx="394.67" cy="866.93" r="6.98" fill="#111111"/><circle cx="456.27" cy="866.93" r="6.98" fill="#111111"/><circle cx="476.80" cy="866.93" r="6.98" fill="#111111"/><circle cx="620.53" cy="866.93" r="6.98" fill="#111111"/><polygon points="667.95,863.27 667.95,870.60 661.60,874.26 655.25,870.60 655.25,863.27 661.60,859.60" fill="#111111"/><circle cx="682.13" cy="866.93" r="6.98" fill="#111111"/><circle cx="702.67" cy="866.93" r="6.98" fill="#111111"/><circle cx="723.20" cy="866.93" r="6.98" fill="#111111"/><polygon points="750.08,863.27 750.08,870.60 743.73,874.26 737.39,870.60 737.39,863.27 743.73,859.60" fill="#111111"/><circle cx="784.80" cy="866.93" r="6.98" fill="#111111"/><circle cx="805.33" cy="866.93" r="6.98" fill="#111111"/><circle cx="846.40" cy="866.93" r="6.98" fill="#111111"/><circle cx="928.53" cy="866.93" r="6.98" fill="#111111"/><circle cx="969.60" cy="866.93" r="6.98" fill="#111111"/><circle cx="353.60" cy="887.47" r="6.98" fill="#111111"/><circle cx="374.13" cy="887.47" r="6.98" fill="#111111"/><polygon points="401.01,883.80 401.01,891.13 394.67,894.80 388.32,891.13 388.32,883.80 394.67,880.14" fill="#111111"/><polygon points="483.15,883.80 483.15,891.13 476.80,894.80 470.45,891.13 470.45,883.80 476.80,880.14" fill="#111111"/><circle cx="517.87" cy="887.47" r="6.98" fill="#111111"/><circle cx="538.40" cy="887.47" r="6.98" fill="#111111"/><polygon points="565.28,883.80 565.28,891.13 558.93,894.80 552.59,891.13 552.59,883.80 558.93,880.14" fill="#111111"/><circle cx="600.00" cy="887.47" r="6.98" fill="#111111"/><circle cx="682.13" cy="887.47" r="6.98" fill="#111111"/><polygon points="729.55,883.80 729.55,891.13 723.20,894.80 716.85,891.13 716.85,883.80 723.20,880.14" fill="#111111"/><circle cx="743.73" cy="887.47" r="6.98" fill="#111111"/><circle cx="764.27" cy="887.47" r="6.98" fill="#111111"/><polygon points="811.68,883.80 811.68,891.13 805.33,894.80 798.99,891.13 798.99,883.80 805.33,880.14" fill="#111111"/><circle cx="825.87" cy="887.47" r="6.98" fill="#111111"/><circle cx="846.40" cy="887.47" r="6.98" fill="#111111"/><polygon points="893.81,883.80 893.81,891.13 887.47,894.80 881.12,891.13 881.12,883.80 887.47,880.14" fill="#111111"/><circle cx="928.53" cy="887.47" r="6.98" fill="#111111"/><circle cx="949.07" cy="887.47" r="6.98" fill="#111111"/><polygon points="380.48,904.33 380.48,911.67 374.13,915.33 367.79,911.67 367.79,904.33 374.13,900.67" fill="#111111"/><circle cx="497.33" cy="908.00" r="6.98" fill="#111111"/><circle cx="517.87" cy="908.00" r="6.98" fill="#111111"/><polygon points="544.75,904.33 544.75,911.67 538.40,915.33 532.05,911.67 532.05,904.33 538.40,900.67" fill="#111111"/><circle cx="579.47" cy="908.00" r="6.98" fill="#111111"/><circle cx="600.00" cy="908.00" r="6.98" fill="#111111"/><polygon points="626.88,904.33 626.88,911.67 620.53,915.33 614.19,911.67 614.19,904.33 620.53,900.67" fill="#111111"/><circle cx="682.13" cy="908.00" r="6.98" fill="#111111"/><polygon points="709.01,904.33 709.01,911.67 702.67,915.33 696.32,911.67 696.32,904.33 702.67,900.67" fill="#111111"/><circle cx="723.20" cy="908.00" r="6.98" fill="#111111"/><polygon points="791.15,904.33 791.15,911.67 784.80,915.33 778.45,911.67 778.45,904.33 784.80,900.67" fill="#111111"/><circle cx="846.40" cy="908.00" r="6.98" fill="#111111"/><circle cx="928.53" cy="908.00" r="6.98" fill="#111111"/><circle cx="394.67" cy="928.53" r="6.98" fill="#111111"/><circle cx="415.20" cy="928.53" r="6.98" fill="#111111"/><polygon points="442.08,924.87 442.08,932.20 435.73,935.86 429.39,932.20 429.39,924.87 435.73,921.20" fill="#111111"/><circle cx="497.33" cy="928.53" r="6.98" fill="#111111"/><circle cx="558.93" cy="928.53" r="6.98" fill="#111111"/><polygon points="606.35,924.87 606.35,932.20 600.00,935.86 593.65,932.20 593.65,924.87 600.00,921.20" fill="#111111"/><circle cx="620.53" cy="928.53" r="6.98" fill="#111111"/><polygon points="688.48,924.87 688.48,932.20 682.13,935.86 675.79,932.20 675.79,924.87 682.13,921.20" fill="#111111"/><circle cx="723.20" cy="928.53" r="6.98" fill="#111111"/><polygon points="770.61,924.87 770.61,932.20 764.27,935.86 757.92,932.20 757.92,924.87 764.27,921.20" fill="#111111"/><polygon points="852.75,924.87 852.75,932.20 846.40,935.86 840.05,932.20 840.05,924.87 846.40,921.20" fill="#111111"/><circle cx="866.93" cy="928.53" r="6.98" fill="#111111"/><circle cx="887.47" cy="928.53" r="6.98" fill="#111111"/><circle cx="908.00" cy="928.53" r="6.98" fill="#111111"/><circle cx="353.60" cy="949.07" r="6.98" fill="#111111"/><circle cx="374.13" cy="949.07" r="6.98" fill="#111111"/><circle cx="394.67" cy="949.07" r="6.98" fill="#111111"/><circle cx="435.73" cy="949.07" r="6.98" fill="#111111"/><circle cx="456.27" cy="949.07" r="6.98" fill="#111111"/><circle cx="558.93" cy="949.07" r="6.98" fill="#111111"/><polygon points="585.81,945.40 585.81,952.73 579.47,956.40 573.12,952.73 573.12,945.40 579.47,941.74" fill="#111111"/><circle cx="600.00" cy="949.07" r="6.98" fill="#111111"/><circle cx="620.53" cy="949.07" r="6.98" fill="#111111"/><circle cx="723.20" cy="949.07" r="6.98" fill="#111111"/><polygon points="750.08,945.40 750.08,952.73 743.73,956.40 737.39,952.73 737.39,945.40 743.73,941.74" fill="#111111"/><circle cx="764.27" cy="949.07" r="6.98" fill="#111111"/><circle cx="784.80" cy="949.07" r="6.98" fill="#111111"/><polygon points="832.21,945.40 832.21,952.73 825.87,956.40 819.52,952.73 819.52,945.40 825.87,941.74" fill="#111111"/><circle cx="846.40" cy="949.07" r="6.98" fill="#111111"/><circle cx="353.60" cy="969.60" r="6.98" fill="#111111"/><circle cx="374.13" cy="969.60" r="6.98" fill="#111111"/><circle cx="415.20" cy="969.60" r="6.98" fill="#111111"/><circle cx="435.73" cy="969.60" r="6.98" fill="#111111"/><circle cx="517.87" cy="969.60" r="6.98" fill="#111111"/><circle cx="538.40" cy="969.60" r="6.98" fill="#111111"/><polygon points="565.28,965.93 565.28,973.27 558.93,976.93 552.59,973.27 552.59,965.93 558.93,962.27" fill="#111111"/><circle cx="682.13" cy="969.60" r="6.98" fill="#111111"/><circle cx="702.67" cy="969.60" r="6.98" fill="#111111"/><circle cx="784.80" cy="969.60" r="6.98" fill="#111111"/><polygon points="811.68,965.93 811.68,973.27 805.33,976.93 798.99,973.27 798.99,965.93 805.33,962.27" fill="#111111"/><circle cx="825.87" cy="969.60" r="6.98" fill="#111111"/><polygon points="380.48,986.47 380.48,993.80 374.13,997.46 367.79,993.80 367.79,986.47 374.13,982.80" fill="#111111"/><circle cx="394.67" cy="990.13" r="6.98" fill="#111111"/><polygon points="462.61,986.47 462.61,993.80 456.27,997.46 449.92,993.80 449.92,986.47 456.27,982.80" fill="#111111"/><circle cx="476.80" cy="990.13" r="6.98" fill="#111111"/><circle cx="517.87" cy="990.13" r="6.98" fill="#111111"/><circle cx="558.93" cy="990.13" r="6.98" fill="#111111"/><circle cx="579.47" cy="990.13" r="6.98" fill="#111111"/><polygon points="626.88,986.47 626.88,993.80 620.53,997.46 614.19,993.80 614.19,986.47 620.53,982.80" fill="#111111"/><circle cx="641.07" cy="990.13" r="6.98" fill="#111111"/><circle cx="682.13" cy="990.13" r="6.98" fill="#111111"/><circle cx="764.27" cy="990.13" r="6.98" fill="#111111"/><polygon points="442.08,1007.00 442.08,1014.33 435.73,1018.00 429.39,1014.33 429.39,1007.00 435.73,1003.34" fill="#111111"/><polygon points="524.21,1007.00 524.21,1014.33 517.87,1018.00 511.52,1014.33 511.52,1007.00 517.87,1003.34" fill="#111111"/><circle cx="538.40" cy="1010.67" r="6.98" fill="#111111"/><circle cx="558.93" cy="1010.67" r="6.98" fill="#111111"/><polygon points="688.48,1007.00 688.48,1014.33 682.13,1018.00 675.79,1014.33 675.79,1007.00 682.13,1003.34" fill="#111111"/><circle cx="702.67" cy="1010.67" r="6.98" fill="#111111"/><circle cx="723.20" cy="1010.67" r="6.98" fill="#111111"/><circle cx="743.73" cy="1010.67" r="6.98" fill="#111111"/></g><polygon points="644.46,574.33 644.46,625.67 600.00,651.33 555.54,625.67 555.54,574.33 600.00,548.67" fill="#e8e8e8" stroke="#111111" stroke-width="2"/><polygon points="625.78,585.11 625.78,614.89 600.00,629.77 574.22,614.89 574.22,585.11 600.00,570.23" fill="#d4d4d4" stroke="#111111" stroke-width="1.5"/><polygon points="640.90,576.39 640.90,583.57 634.68,587.17 628.45,583.57 628.45,576.39 634.68,572.79" fill="#111111" opacity="0.35"/><polygon points="640.90,616.43 640.90,623.61 634.68,627.21 628.45,623.61 628.45,616.43 634.68,612.83" fill="#111111" opacity="0.35"/><polygon points="606.22,636.45 606.22,643.63 600.00,647.23 593.78,643.63 593.78,636.45 600.00,632.85" fill="#111111" opacity="0.35"/><polygon points="571.55,616.43 571.55,623.61 565.32,627.21 559.10,623.61 559.10,616.43 565.32,612.83" fill="#111111" opacity="0.35"/><polygon points="571.55,576.39 571.55,583.57 565.32,587.17 559.10,583.57 559.10,576.39 565.32,572.79" fill="#111111" opacity="0.35"/><polygon points="606.22,556.37 606.22,563.55 600.00,567.15 593.78,563.55 593.78,556.37 600.00,552.77" fill="#111111" opacity="0.35"/><text x="600" y="1140" text-anchor="middle" font-family="Arial, Helvetica, sans-serif" font-size="20" font-weight="700" letter-spacing="4" fill="#E86B1A">ALIBARBAR</text></svg>