<svg xmlns="http://www.w3.org/2000/svg" width="1400" height="1400" viewBox="0 0 1400 1400"><defs><clipPath id="disc"><circle cx="700" cy="700" r="679"/></clipPath></defs><rect width="1400" height="1400" fill="#ffffff"/><circle cx="700" cy="700" r="679" fill="#ffffff"/><g clip-path="url(#disc)"><path d="M 778.14 63.58 A 641.2 641.2 0 0 1 1212.09 314.12" fill="none" stroke="#F07828" stroke-width="54" stroke-linecap="butt"/><path d="M 1290.23 449.46 A 641.2 641.2 0 0 1 1290.23 950.54" fill="none" stroke="#F07828" stroke-width="54" stroke-linecap="butt"/><path d="M 1212.09 1085.88 A 641.2 641.2 0 0 1 778.14 1336.42" fill="none" stroke="#F07828" stroke-width="54" stroke-linecap="butt"/><path d="M 621.86 1336.42 A 641.2 641.2 0 0 1 187.91 1085.88" fill="none" stroke="#F07828" stroke-width="54" stroke-linecap="butt"/><path d="M 109.77 950.54 A 641.2 641.2 0 0 1 109.77 449.46" fill="none" stroke="#F07828" stroke-width="54" stroke-linecap="butt"/><path d="M 187.91 314.12 A 641.2 641.2 0 0 1 621.86 63.58" fill="none" stroke="#F07828" stroke-width="54" stroke-linecap="butt"/><circle cx="700" cy="700" r="588" fill="none" stroke="#E86A1C" stroke-width="8"/><polygon points="808.25,637.50 808.25,762.50 700.00,825.00 591.75,762.50 591.75,637.50 700.00,575.00" fill="#1a1a1a"/><polygon points="801.46,380.48 801.46,438.48 751.23,467.48 701.00,438.48 701.00,380.48 751.23,351.48" fill="#ffffff" stroke="#1a1a1a" stroke-width="16"/><circle cx="751.2" cy="409.5" r="14" fill="#1a1a1a"/><polygon points="983.87,867.05 983.87,925.05 933.64,954.05 883.41,925.05 883.41,867.05 933.64,838.05" fill="#ffffff" stroke="#1a1a1a" stroke-width="16"/><circle cx="933.6" cy="896.1" r="14" fill="#1a1a1a"/><polygon points="473.02,771.90 473.02,829.90 422.79,858.90 372.56,829.90 372.56,771.90 422.79,742.90" fill="#ffffff" stroke="#1a1a1a" stroke-width="16"/><circle cx="422.8" cy="800.9" r="14" fill="#1a1a1a"/><circle cx="700.0" cy="460.0" r="17" fill="#1a1a1a"/><circle cx="770.0" cy="445.0" r="11" fill="#1a1a1a"/><circle cx="810.0" cy="485.0" r="16" fill="#1a1a1a"/><circle cx="740.0" cy="525.0" r="18" fill="#1a1a1a"/><circle cx="630.0" cy="490.0" r="17" fill="#1a1a1a"/><circle cx="520.0" cy="640.0" r="17" fill="#1a1a1a"/><circle cx="480.0" cy="690.0" r="12" fill="#1a1a1a"/><circle cx="505.0" cy="750.0" r="12" fill="#1a1a1a"/><circle cx="470.0" cy="800.0" r="12" fill="#1a1a1a"/><circle cx="530.0" cy="840.0" r="13" fill="#1a1a1a"/><circle cx="490.0" cy="880.0" r="11" fill="#1a1a1a"/><circle cx="860.0" cy="630.0" r="12" fill="#1a1a1a"/><circle cx="910.0" cy="680.0" r="15" fill="#1a1a1a"/><circle cx="940.0" cy="740.0" r="12" fill="#1a1a1a"/><circle cx="890.0" cy="790.0" r="14" fill="#1a1a1a"/><circle cx="930.0" cy="840.0" r="16" fill="#1a1a1a"/><circle cx="870.0" cy="885.0" r="16" fill="#1a1a1a"/><circle cx="820.0" cy="920.0" r="12" fill="#1a1a1a"/><circle cx="720.0" cy="930.0" r="16" fill="#1a1a1a"/><circle cx="650.0" cy="915.0" r="16" fill="#1a1a1a"/><circle cx="790.0" cy="850.0" r="17" fill="#1a1a1a"/><circle cx="600.0" cy="780.0" r="19" fill="#1a1a1a"/><circle cx="750.0" cy="580.0" r="17" fill="#1a1a1a"/><circle cx="670.0" cy="820.0" r="14" fill="#1a1a1a"/></g></svg>