<svg xmlns="http://www.w3.org/2000/svg" width="1400" height="1400" viewBox="0 0 1400 1400"><defs><clipPath id="disc"><circle cx="700" cy="700" r="679"/></clipPath></defs><rect width="1400" height="1400" fill="#ffffff"/><circle cx="700" cy="700" r="679" fill="#ffffff"/><g clip-path="url(#disc)"><path d="M 778.14 63.58 A 641.2 641.2 0 0 1 1212.09 314.12" fill="none" stroke="#F07828" stroke-width="54" stroke-linecap="butt"/><path d="M 1290.23 449.46 A 641.2 641.2 0 0 1 1290.23 950.54" fill="none" stroke="#F07828" stroke-width="54" stroke-linecap="butt"/><path d="M 1212.09 1085.88 A 641.2 641.2 0 0 1 778.14 1336.42" fill="none" stroke="#F07828" stroke-width="54" stroke-linecap="butt"/><path d="M 621.86 1336.42 A 641.2 641.2 0 0 1 187.91 1085.88" fill="none" stroke="#F07828" stroke-width="54" stroke-linecap="butt"/><path d="M 109.77 950.54 A 641.2 641.2 0 0 1 109.77 449.46" fill="none" stroke="#F07828" stroke-width="54" stroke-linecap="butt"/><path d="M 187.91 314.12 A 641.2 641.2 0 0 1 621.86 63.58" fill="none" stroke="#F07828" stroke-width="54" stroke-linecap="butt"/><circle cx="700" cy="700" r="588" fill="none" stroke="#E86A1C" stroke-width="8"/><polygon points="808.25,637.50 808.25,762.50 700.00,825.00 591.75,762.50 591.75,637.50 700.00,575.00" fill="#1a1a1a"/><polygon points="697.27,370.63 697.27,428.63 647.04,457.63 596.81,428.63 596.81,370.63 647.04,341.63" fill="#ffffff" stroke="#1a1a1a" stroke-width="16"/><circle cx="647.0" cy="399.6" r="14" fill="#1a1a1a"/><polygon points="1027.44,771.90 1027.44,829.90 977.21,858.90 926.98,829.90 926.98,771.90 977.21,742.90" fill="#ffffff" stroke="#1a1a1a" stroke-width="16"/><circle cx="977.2" cy="800.9" r="14" fill="#1a1a1a"/><polygon points="520.42,863.84 520.42,921.84 470.19,950.84 419.96,921.84 419.96,863.84 470.19,834.84" fill="#ffffff" stroke="#1a1a1a" stroke-width="16"/><circle cx="470.2" cy="892.8" r="14" fill="#1a1a1a"/><circle cx="720.0" cy="450.0" r="18" fill="#1a1a1a"/><circle cx="785.0" cy="465.0" r="15" fill="#1a1a1a"/><circle cx="825.0" cy="435.0" r="15" fill="#1a1a1a"/><circle cx="760.0" cy="515.0" r="19" fill="#1a1a1a"/><circle cx="655.0" cy="480.0" r="12" fill="#1a1a1a"/><circle cx="600.0" cy="530.0" r="16" fill="#1a1a1a"/><circle cx="500.0" cy="670.0" r="11" fill="#1a1a1a"/><circle cx="460.0" cy="730.0" r="17" fill="#1a1a1a"/><circle cx="515.0" cy="780.0" r="16" fill="#1a1a1a"/><circle cx="475.0" cy="830.0" r="12" fill="#1a1a1a"/><circle cx="540.0" cy="870.0" r="19" fill="#1a1a1a"/><circle cx="850.0" cy="650.0" r="12" fill="#1a1a1a"/><circle cx="900.0" cy="700.0" r="17" fill="#1a1a1a"/><circle cx="935.0" cy="760.0" r="11" fill="#1a1a1a"/><circle cx="885.0" cy="815.0" r="12" fill="#1a1a1a"/><circle cx="920.0" cy="865.0" r="17" fill="#1a1a1a"/><circle cx="855.0" cy="900.0" r="13" fill="#1a1a1a"/><circle cx="780.0" cy="925.0" r="17" fill="#1a1a1a"/><circle cx="690.0" cy="940.0" r="14" fill="#1a1a1a"/><circle cx="630.0" cy="890.0" r="15" fill="#1a1a1a"/><circle cx="810.0" cy="780.0" r="19" fill="#1a1a1a"/><circle cx="570.0" cy="740.0" r="13" fill="#1a1a1a"/><circle cx="700.0" cy="540.0" r="15" fill="#1a1a1a"/><circle cx="745.0" cy="840.0" r="19" fill="#1a1a1a"/></g></svg>