<svg xmlns="http://www.w3.org/2000/svg" width="1400" height="1400" viewBox="0 0 1400 1400"><defs><clipPath id="disc"><circle cx="700" cy="700" r="679"/></clipPath></defs><rect width="1400" height="1400" fill="#ffffff"/><circle cx="700" cy="700" r="679" fill="#ffffff"/><g clip-path="url(#disc)"><path d="M 778.14 63.58 A 641.2 641.2 0 0 1 1212.09 314.12" fill="none" stroke="#F07828" stroke-width="54" stroke-linecap="butt"/><path d="M 1290.23 449.46 A 641.2 641.2 0 0 1 1290.23 950.54" fill="none" stroke="#F07828" stroke-width="54" stroke-linecap="butt"/><path d="M 1212.09 1085.88 A 641.2 641.2 0 0 1 778.14 1336.42" fill="none" stroke="#F07828" stroke-width="54" stroke-linecap="butt"/><path d="M 621.86 1336.42 A 641.2 641.2 0 0 1 187.91 1085.88" fill="none" stroke="#F07828" stroke-width="54" stroke-linecap="butt"/><path d="M 109.77 950.54 A 641.2 641.2 0 0 1 109.77 449.46" fill="none" stroke="#F07828" stroke-width="54" stroke-linecap="butt"/><path d="M 187.91 314.12 A 641.2 641.2 0 0 1 621.86 63.58" fill="none" stroke="#F07828" stroke-width="54" stroke-linecap="butt"/><circle cx="700" cy="700" r="588" fill="none" stroke="#E86A1C" stroke-width="8"/><polygon points="808.25,637.50 808.25,762.50 700.00,825.00 591.75,762.50 591.75,637.50 700.00,575.00" fill="#1a1a1a"/><polygon points="776.38,372.14 776.38,430.14 726.15,459.14 675.92,430.14 675.92,372.14 726.15,343.14" fill="#ffffff" stroke="#1a1a1a" stroke-width="16"/><circle cx="726.1" cy="401.1" r="14" fill="#1a1a1a"/><polygon points="1022.12,797.79 1022.12,855.79 971.89,884.79 921.66,855.79 921.66,797.79 971.89,768.79" fill="#ffffff" stroke="#1a1a1a" stroke-width="16"/><circle cx="971.9" cy="826.8" r="14" fill="#1a1a1a"/><polygon points="500.39,845.94 500.39,903.94 450.16,932.94 399.93,903.94 399.93,845.94 450.16,816.94" fill="#ffffff" stroke="#1a1a1a" stroke-width="16"/><circle cx="450.2" cy="874.9" r="14" fill="#1a1a1a"/><circle cx="715.0" cy="465.0" r="18" fill="#1a1a1a"/><circle cx="775.0" cy="440.0" r="13" fill="#1a1a1a"/><circle cx="820.0" cy="480.0" r="12" fill="#1a1a1a"/><circle cx="790.0" cy="520.0" r="11" fill="#1a1a1a"/><circle cx="645.0" cy="500.0" r="19" fill="#1a1a1a"/><circle cx="590.0" cy="560.0" r="16" fill="#1a1a1a"/><circle cx="515.0" cy="650.0" r="16" fill="#1a1a1a"/><circle cx="475.0" cy="710.0" r="13" fill="#1a1a1a"/><circle cx="510.0" cy="770.0" r="19" fill="#1a1a1a"/><circle cx="465.0" cy="820.0" r="11" fill="#1a1a1a"/><circle cx="530.0" cy="860.0" r="18" fill="#1a1a1a"/><circle cx="600.0" cy="900.0" r="13" fill="#1a1a1a"/><circle cx="865.0" cy="645.0" r="13" fill="#1a1a1a"/><circle cx="915.0" cy="695.0" r="18" fill="#1a1a1a"/><circle cx="945.0" cy="755.0" r="15" fill="#1a1a1a"/><circle cx="895.0" cy="805.0" r="17" fill="#1a1a1a"/><circle cx="935.0" cy="855.0" r="19" fill="#1a1a1a"/><circle cx="860.0" cy="895.0" r="11" fill="#1a1a1a"/><circle cx="795.0" cy="930.0" r="16" fill="#1a1a1a"/><circle cx="700.0" cy="920.0" r="12" fill="#1a1a1a"/><circle cx="755.0" cy="555.0" r="15" fill="#1a1a1a"/><circle cx="660.0" cy="840.0" r="16" fill="#1a1a1a"/><circle cx="830.0" cy="840.0" r="13" fill="#1a1a1a"/><circle cx="570.0" cy="790.0" r="17" fill="#1a1a1a"/></g></svg>