<svg xmlns="http://www.w3.org/2000/svg" width="1200" height="1200" viewBox="0 0 1200 1200"><defs><clipPath id="disc"><circle cx="600" cy="600" r="500"/></clipPath></defs><rect width="100%" height="100%" fill="#f7f7f5"/><circle cx="600" cy="600" r="588" fill="none" stroke="#E86B1A" stroke-width="28"/><circle cx="600" cy="600" r="546" fill="none" stroke="#ffffff" stroke-width="6"/><circle cx="600" cy="600" r="504" fill="none" stroke="#111111" stroke-width="2.5"/><path d="M 929.2328744655005 129.80672657811868 A 574 574 0 0 1 929.2328744655005 1070.1932734218813" fill="none" stroke="#C9A227" stroke-width="8" stroke-linecap="round" opacity="0.85"/><path d="M 270.7671255344995 1070.1932734218813 A 574 574 0 0 1 270.76712553449937 129.80672657811886" fill="none" stroke="#C9A227" stroke-width="8" stroke-linecap="round" opacity="0.85"/><circle cx="600" cy="600" r="499" fill="#f7f7f5"/><g clip-path="url(#disc)"><polygon points="568.49,536.82 568.49,541.34 564.58,543.59 560.67,541.34 560.67,536.82 564.58,534.56" fill="#111111" opacity="0.12"/><polygon points="592.11,536.82 592.11,541.34 588.19,543.59 584.28,541.34 584.28,536.82 588.19,534.56" fill="#111111" opacity="0.12"/><polygon points="615.72,536.82 615.72,541.34 611.81,543.59 607.89,541.34 607.89,536.82 611.81,534.56" fill="#111111" opacity="0.12"/><polygon points="639.33,536.82 639.33,541.34 635.42,543.59 631.51,541.34 631.51,536.82 635.42,534.56" fill="#111111" opacity="0.12"/><polygon points="556.69,557.13 556.69,561.64 552.77,563.90 548.86,561.64 548.86,557.13 552.77,554.87" fill="#111111" opacity="0.12"/><polygon points="651.14,557.13 651.14,561.64 647.23,563.90 643.31,561.64 643.31,557.13 647.23,554.87" fill="#111111" opacity="0.12"/><polygon points="544.88,577.43 544.88,581.95 540.97,584.21 537.05,581.95 537.05,577.43 540.97,575.18" fill="#111111" opacity="0.12"/><polygon points="662.95,577.43 662.95,581.95 659.03,584.21 655.12,581.95 655.12,577.43 659.03,575.18" fill="#111111" opacity="0.12"/><polygon points="533.07,597.74 533.07,602.26 529.16,604.52 525.25,602.26 525.25,597.74 529.16,595.48" fill="#111111" opacity="0.12"/><polygon points="674.75,597.74 674.75,602.26 670.84,604.52 666.93,602.26 666.93,597.74 670.84,595.48" fill="#111111" opacity="0.12"/><polygon points="544.88,618.05 544.88,622.57 540.97,624.82 537.05,622.57 537.05,618.05 540.97,615.79" fill="#111111" opacity="0.12"/><polygon points="662.95,618.05 662.95,622.57 659.03,624.82 655.12,622.57 655.12,618.05 659.03,615.79" fill="#111111" opacity="0.12"/><polygon points="556.69,638.36 556.69,642.87 552.77,645.13 548.86,642.87 548.86,638.36 552.77,636.10" fill="#111111" opacity="0.12"/><polygon points="651.14,638.36 651.14,642.87 647.23,645.13 643.31,642.87 643.31,638.36 647.23,636.10" fill="#111111" opacity="0.12"/><polygon points="568.49,658.66 568.49,663.18 564.58,665.44 560.67,663.18 560.67,658.66 564.58,656.41" fill="#111111" opacity="0.12"/><polygon points="592.11,658.66 592.11,663.18 588.19,665.44 584.28,663.18 584.28,658.66 588.19,656.41" fill="#111111" opacity="0.12"/><polygon points="615.72,658.66 615.72,663.18 611.81,665.44 607.89,663.18 607.89,658.66 611.81,656.41" fill="#111111" opacity="0.12"/><polygon points="639.33,658.66 639.33,663.18 635.42,665.44 631.51,663.18 631.51,658.66 635.42,656.41" fill="#111111" opacity="0.12"/><circle cx="250.93" cy="250.93" r="65.71" fill="#111111"/><circle cx="250.93" cy="250.93" r="45.17" fill="#f7f7f5"/><circle cx="250.93" cy="250.93" r="22.59" fill="#111111"/><circle cx="949.07" cy="250.93" r="65.71" fill="#111111"/><circle cx="949.07" cy="250.93" r="45.17" fill="#f7f7f5"/><circle cx="949.07" cy="250.93" r="22.59" fill="#111111"/><circle cx="250.93" cy="949.07" r="65.71" fill="#111111"/><circle cx="250.93" cy="949.07" r="45.17" fill="#f7f7f5"/><circle cx="250.93" cy="949.07" r="22.59" fill="#111111"/><polygon points="524.21,185.67 524.21,193.00 517.87,196.66 511.52,193.00 511.52,185.67 517.87,182.00" fill="#111111"/><circle cx="538.40" cy="189.33" r="6.98" fill="#111111"/><circle cx="558.93" cy="189.33" r="6.98" fill="#111111"/><circle cx="579.47" cy="189.33" r="6.98" fill="#111111"/><circle cx="620.53" cy="189.33" r="6.98" fill="#111111"/><circle cx="641.07" cy="189.33" r="6.98" fill="#111111"/><polygon points="688.48,185.67 688.48,193.00 682.13,196.66 675.79,193.00 675.79,185.67 682.13,182.00" fill="#111111"/><circle cx="702.67" cy="189.33" r="6.98" fill="#111111"/><circle cx="743.73" cy="189.33" r="6.98" fill="#111111"/><circle cx="456.27" cy="209.87" r="6.98" fill="#111111"/><circle cx="476.80" cy="209.87" r="6.98" fill="#111111"/><circle cx="517.87" cy="209.87" r="6.98" fill="#111111"/><circle cx="558.93" cy="209.87" r="6.98" fill="#111111"/><polygon points="585.81,206.20 585.81,213.53 579.47,217.20 573.12,213.53 573.12,206.20 579.47,202.54" fill="#111111"/><circle cx="600.00" cy="209.87" r="6.98" fill="#111111"/><circle cx="641.07" cy="209.87" r="6.98" fill="#111111"/><polygon points="667.95,206.20 667.95,213.53 661.60,217.20 655.25,213.53 655.25,206.20 661.60,202.54" fill="#111111"/><circle cx="764.27" cy="209.87" r="6.98" fill="#111111"/><circle cx="784.80" cy="209.87" r="6.98" fill="#111111"/><circle cx="805.33" cy="209.87" r="6.98" fill="#111111"/><circle cx="353.60" cy="230.40" r="6.98" fill="#111111"/><circle cx="374.13" cy="230.40" r="6.98" fill="#111111"/><polygon points="401.01,226.73 401.01,234.07 394.67,237.73 388.32,234.07 388.32,226.73 394.67,223.07" fill="#111111"/><circle cx="435.73" cy="230.40" r="6.98" fill="#111111"/><circle cx="456.27" cy="230.40" r="6.98" fill="#111111"/><circle cx="538.40" cy="230.40" r="6.98" fill="#111111"/><polygon points="565.28,226.73 565.28,234.07 558.93,237.73 552.59,234.07 552.59,226.73 558.93,223.07" fill="#111111"/><circle cx="579.47" cy="230.40" r="6.98" fill="#111111"/><circle cx="600.00" cy="230.40" r="6.98" fill="#111111"/><circle cx="620.53" cy="230.40" r="6.98" fill="#111111"/><polygon points="647.41,226.73 647.41,234.07 641.07,237.73 634.72,234.07 634.72,226.73 641.07,223.07" fill="#111111"/><circle cx="702.67" cy="230.40" r="6.98" fill="#111111"/><polygon points="811.68,226.73 811.68,234.07 805.33,237.73 798.99,234.07 798.99,226.73 805.33,223.07" fill="#111111"/><circle cx="825.87" cy="230.40" r="6.98" fill="#111111"/><circle cx="353.60" cy="250.93" r="6.98" fill="#111111"/><polygon points="380.48,247.27 380.48,254.60 374.13,258.26 367.79,254.60 367.79,247.27 374.13,243.60" fill="#111111"/><circle cx="394.67" cy="250.93" r="6.98" fill="#111111"/><circle cx="435.73" cy="250.93" r="6.98" fill="#111111"/><circle cx="517.87" cy="250.93" r="6.98" fill="#111111"/><circle cx="579.47" cy="250.93" r="6.98" fill="#111111"/><circle cx="600.00" cy="250.93" r="6.98" fill="#111111"/><polygon points="626.88,247.27 626.88,254.60 620.53,258.26 614.19,254.60 614.19,247.27 620.53,243.60" fill="#111111"/><circle cx="641.07" cy="250.93" r="6.98" fill="#111111"/><circle cx="661.60" cy="250.93" r="6.98" fill="#111111"/><circle cx="764.27" cy="250.93" r="6.98" fill="#111111"/><circle cx="805.33" cy="250.93" r="6.98" fill="#111111"/><circle cx="825.87" cy="250.93" r="6.98" fill="#111111"/><polygon points="359.95,267.80 359.95,275.13 353.60,278.80 347.25,275.13 347.25,267.80 353.60,264.14" fill="#111111"/><circle cx="394.67" cy="271.47" r="6.98" fill="#111111"/><circle cx="497.33" cy="271.47" r="6.98" fill="#111111"/><circle cx="538.40" cy="271.47" r="6.98" fill="#111111"/><circle cx="558.93" cy="271.47" r="6.98" fill="#111111"/><circle cx="620.53" cy="271.47" r="6.98" fill="#111111"/><circle cx="641.07" cy="271.47" r="6.98" fill="#111111"/><circle cx="661.60" cy="271.47" r="6.98" fill="#111111"/><polygon points="688.48,267.80 688.48,275.13 682.13,278.80 675.79,275.13 675.79,267.80 682.13,264.14" fill="#111111"/><circle cx="702.67" cy="271.47" r="6.98" fill="#111111"/><circle cx="784.80" cy="271.47" r="6.98" fill="#111111"/><circle cx="805.33" cy="271.47" r="6.98" fill="#111111"/><circle cx="353.60" cy="292.00" r="6.98" fill="#111111"/><circle cx="394.67" cy="292.00" r="6.98" fill="#111111"/><circle cx="435.73" cy="292.00" r="6.98" fill="#111111"/><circle cx="456.27" cy="292.00" r="6.98" fill="#111111"/><circle cx="476.80" cy="292.00" r="6.98" fill="#111111"/><polygon points="503.68,288.33 503.68,295.67 497.33,299.33 490.99,295.67 490.99,288.33 497.33,284.67" fill="#111111"/><polygon points="585.81,288.33 585.81,295.67 579.47,299.33 573.12,295.67 573.12,288.33 579.47,284.67" fill="#111111"/><circle cx="641.07" cy="292.00" r="6.98" fill="#111111"/><circle cx="702.67" cy="292.00" r="6.98" fill="#111111"/><circle cx="764.27" cy="292.00" r="6.98" fill="#111111"/><circle cx="784.80" cy="292.00" r="6.98" fill="#111111"/><circle cx="805.33" cy="292.00" r="6.98" fill="#111111"/><circle cx="846.40" cy="292.00" r="6.98" fill="#111111"/><circle cx="353.60" cy="312.53" r="6.98" fill="#111111"/><polygon points="401.01,308.87 401.01,316.20 394.67,319.86 388.32,316.20 388.32,308.87 394.67,305.20" fill="#111111"/><circle cx="435.73" cy="312.53" r="6.98" fill="#111111"/><polygon points="483.15,308.87 483.15,316.20 476.80,319.86 470.45,316.20 470.45,308.87 476.80,305.20" fill="#111111"/><circle cx="517.87" cy="312.53" r="6.98" fill="#111111"/><polygon points="565.28,308.87 565.28,316.20 558.93,319.86 552.59,316.20 552.59,308.87 558.93,305.20" fill="#111111"/><circle cx="600.00" cy="312.53" r="6.98" fill="#111111"/><polygon points="647.41,308.87 647.41,316.20 641.07,319.86 634.72,316.20 634.72,308.87 641.07,305.20" fill="#111111"/><circle cx="682.13" cy="312.53" r="6.98" fill="#111111"/><polygon points="729.55,308.87 729.55,316.20 723.20,319.86 716.85,316.20 716.85,308.87 723.20,305.20" fill="#111111"/><circle cx="764.27" cy="312.53" r="6.98" fill="#111111"/><polygon points="811.68,308.87 811.68,316.20 805.33,319.86 798.99,316.20 798.99,308.87 805.33,305.20" fill="#111111"/><circle cx="846.40" cy="312.53" r="6.98" fill="#111111"/><polygon points="380.48,329.40 380.48,336.73 374.13,340.40 367.79,336.73 367.79,329.40 374.13,325.74" fill="#111111"/><circle cx="394.67" cy="333.07" r="6.98" fill="#111111"/><polygon points="462.61,329.40 462.61,336.73 456.27,340.40 449.92,336.73 449.92,329.40 456.27,325.74" fill="#111111"/><circle cx="497.33" cy="333.07" r="6.98" fill="#111111"/><circle cx="517.87" cy="333.07" r="6.98" fill="#111111"/><polygon points="544.75,329.40 544.75,336.73 538.40,340.40 532.05,336.73 532.05,329.40 538.40,325.74" fill="#111111"/><circle cx="558.93" cy="333.07" r="6.98" fill="#111111"/><circle cx="579.47" cy="333.07" r="6.98" fill="#111111"/><circle cx="600.00" cy="333.07" r="6.98" fill="#111111"/><polygon points="626.88,329.40 626.88,336.73 620.53,340.40 614.19,336.73 614.19,329.40 620.53,325.74" fill="#111111"/><circle cx="682.13" cy="333.07" r="6.98" fill="#111111"/><polygon points="709.01,329.40 709.01,336.73 702.67,340.40 696.32,336.73 696.32,329.40 702.67,325.74" fill="#111111"/><circle cx="764.27" cy="333.07" r="6.98" fill="#111111"/><circle cx="805.33" cy="333.07" r="6.98" fill="#111111"/><circle cx="846.40" cy="333.07" r="6.98" fill="#111111"/><circle cx="230.40" cy="353.60" r="6.98" fill="#111111"/><circle cx="292.00" cy="353.60" r="6.98" fill="#111111"/><circle cx="312.53" cy="353.60" r="6.98" fill="#111111"/><circle cx="333.07" cy="353.60" r="6.98" fill="#111111"/><polygon points="359.95,349.93 359.95,357.27 353.60,360.93 347.25,357.27 347.25,349.93 353.60,346.27" fill="#111111"/><circle cx="394.67" cy="353.60" r="6.98" fill="#111111"/><circle cx="415.20" cy="353.60" r="6.98" fill="#111111"/><circle cx="456.27" cy="353.60" r="6.98" fill="#111111"/><circle cx="497.33" cy="353.60" r="6.98" fill="#111111"/><circle cx="558.93" cy="353.60" r="6.98" fill="#111111"/><circle cx="579.47" cy="353.60" r="6.98" fill="#111111"/><polygon points="606.35,349.93 606.35,357.27 600.00,360.93 593.65,357.27 593.65,349.93 600.00,346.27" fill="#111111"/><circle cx="641.07" cy="353.60" r="6.98" fill="#111111"/><polygon points="688.48,349.93 688.48,357.27 682.13,360.93 675.79,357.27 675.79,349.93 682.13,346.27" fill="#111111"/><circle cx="702.67" cy="353.60" r="6.98" fill="#111111"/><circle cx="723.20" cy="353.60" r="6.98" fill="#111111"/><circle cx="743.73" cy="353.60" r="6.98" fill="#111111"/><polygon points="770.61,349.93 770.61,357.27 764.27,360.93 757.92,357.27 757.92,349.93 764.27,346.27" fill="#111111"/><circle cx="866.93" cy="353.60" r="6.98" fill="#111111"/><circle cx="908.00" cy="353.60" r="6.98" fill="#111111"/><polygon points="934.88,349.93 934.88,357.27 928.53,360.93 922.19,357.27 922.19,349.93 928.53,346.27" fill="#111111"/><circle cx="949.07" cy="353.60" r="6.98" fill="#111111"/><circle cx="969.60" cy="353.60" r="6.98" fill="#111111"/><circle cx="230.40" cy="374.13" r="6.98" fill="#111111"/><polygon points="257.28,370.47 257.28,377.80 250.93,381.46 244.59,377.80 244.59,370.47 250.93,366.80" fill="#111111"/><circle cx="292.00" cy="374.13" r="6.98" fill="#111111"/><circle cx="374.13" cy="374.13" r="6.98" fill="#111111"/><polygon points="421.55,370.47 421.55,377.80 415.20,381.46 408.85,377.80 408.85,370.47 415.20,366.80" fill="#111111"/><circle cx="517.87" cy="374.13" r="6.98" fill="#111111"/><circle cx="682.13" cy="374.13" r="6.98" fill="#111111"/><circle cx="702.67" cy="374.13" r="6.98" fill="#111111"/><circle cx="723.20" cy="374.13" r="6.98" fill="#111111"/><polygon points="750.08,370.47 750.08,377.80 743.73,381.46 737.39,377.80 737.39,370.47 743.73,366.80" fill="#111111"/><circle cx="764.27" cy="374.13" r="6.98" fill="#111111"/><circle cx="784.80" cy="374.13" r="6.98" fill="#111111"/><circle cx="805.33" cy="374.13" r="6.98" fill="#111111"/><polygon points="832.21,370.47 832.21,377.80 825.87,381.46 819.52,377.80 819.52,370.47 825.87,366.80" fill="#111111"/><circle cx="846.40" cy="374.13" r="6.98" fill="#111111"/><circle cx="887.47" cy="374.13" r="6.98" fill="#111111"/><polygon points="914.35,370.47 914.35,377.80 908.00,381.46 901.65,377.80 901.65,370.47 908.00,366.80" fill="#111111"/><circle cx="969.60" cy="374.13" r="6.98" fill="#111111"/><circle cx="209.87" cy="394.67" r="6.98" fill="#111111"/><circle cx="271.47" cy="394.67" r="6.98" fill="#111111"/><circle cx="292.00" cy="394.67" r="6.98" fill="#111111"/><polygon points="318.88,391.00 318.88,398.33 312.53,402.00 306.19,398.33 306.19,391.00 312.53,387.34" fill="#111111"/><circle cx="353.60" cy="394.67" r="6.98" fill="#111111"/><circle cx="374.13" cy="394.67" r="6.98" fill="#111111"/><polygon points="401.01,391.00 401.01,398.33 394.67,402.00 388.32,398.33 388.32,391.00 394.67,387.34" fill="#111111"/><circle cx="415.20" cy="394.67" r="6.98" fill="#111111"/><circle cx="497.33" cy="394.67" r="6.98" fill="#111111"/><circle cx="538.40" cy="394.67" r="6.98" fill="#111111"/><polygon points="565.28,391.00 565.28,398.33 558.93,402.00 552.59,398.33 552.59,391.00 558.93,387.34" fill="#111111"/><circle cx="579.47" cy="394.67" r="6.98" fill="#111111"/><circle cx="600.00" cy="394.67" r="6.98" fill="#111111"/><circle cx="620.53" cy="394.67" r="6.98" fill="#111111"/><circle cx="661.60" cy="394.67" r="6.98" fill="#111111"/><circle cx="682.13" cy="394.67" r="6.98" fill="#111111"/><circle cx="743.73" cy="394.67" r="6.98" fill="#111111"/><circle cx="825.87" cy="394.67" r="6.98" fill="#111111"/><circle cx="949.07" cy="394.67" r="6.98" fill="#111111"/><polygon points="975.95,391.00 975.95,398.33 969.60,402.00 963.25,398.33 963.25,391.00 969.60,387.34" fill="#111111"/><circle cx="990.13" cy="394.67" r="6.98" fill="#111111"/><circle cx="189.33" cy="415.20" r="6.98" fill="#111111"/><polygon points="380.48,411.53 380.48,418.87 374.13,422.53 367.79,418.87 367.79,411.53 374.13,407.87" fill="#111111"/><circle cx="394.67" cy="415.20" r="6.98" fill="#111111"/><circle cx="435.73" cy="415.20" r="6.98" fill="#111111"/><polygon points="462.61,411.53 462.61,418.87 456.27,422.53 449.92,418.87 449.92,411.53 456.27,407.87" fill="#111111"/><circle cx="476.80" cy="415.20" r="6.98" fill="#111111"/><circle cx="497.33" cy="415.20" r="6.98" fill="#111111"/><circle cx="517.87" cy="415.20" r="6.98" fill="#111111"/><circle cx="600.00" cy="415.20" r="6.98" fill="#111111"/><circle cx="682.13" cy="415.20" r="6.98" fill="#111111"/><circle cx="723.20" cy="415.20" r="6.98" fill="#111111"/><circle cx="805.33" cy="415.20" r="6.98" fill="#111111"/><circle cx="825.87" cy="415.20" r="6.98" fill="#111111"/><circle cx="846.40" cy="415.20" r="6.98" fill="#111111"/><circle cx="887.47" cy="415.20" r="6.98" fill="#111111"/><polygon points="955.41,411.53 955.41,418.87 949.07,422.53 942.72,418.87 942.72,411.53 949.07,407.87" fill="#111111"/><circle cx="1010.67" cy="415.20" r="6.98" fill="#111111"/><polygon points="195.68,432.07 195.68,439.40 189.33,443.06 182.99,439.40 182.99,432.07 189.33,428.40" fill="#111111"/><circle cx="230.40" cy="435.73" r="6.98" fill="#111111"/><circle cx="292.00" cy="435.73" r="6.98" fill="#111111"/><circle cx="312.53" cy="435.73" r="6.98" fill="#111111"/><circle cx="374.13" cy="435.73" r="6.98" fill="#111111"/><circle cx="415.20" cy="435.73" r="6.98" fill="#111111"/><circle cx="456.27" cy="435.73" r="6.98" fill="#111111"/><circle cx="476.80" cy="435.73" r="6.98" fill="#111111"/><circle cx="497.33" cy="435.73" r="6.98" fill="#111111"/><polygon points="524.21,432.07 524.21,439.40 517.87,443.06 511.52,439.40 511.52,432.07 517.87,428.40" fill="#111111"/><polygon points="606.35,432.07 606.35,439.40 600.00,443.06 593.65,439.40 593.65,432.07 600.00,428.40" fill="#111111"/><circle cx="620.53" cy="435.73" r="6.98" fill="#111111"/><circle cx="641.07" cy="435.73" r="6.98" fill="#111111"/><circle cx="723.20" cy="435.73" r="6.98" fill="#111111"/><circle cx="743.73" cy="435.73" r="6.98" fill="#111111"/><polygon points="770.61,432.07 770.61,439.40 764.27,443.06 757.92,439.40 757.92,432.07 764.27,428.40" fill="#111111"/><circle cx="908.00" cy="435.73" r="6.98" fill="#111111"/><circle cx="990.13" cy="435.73" r="6.98" fill="#111111"/><polygon points="1017.01,432.07 1017.01,439.40 1010.67,443.06 1004.32,439.40 1004.32,432.07 1010.67,428.40" fill="#111111"/><circle cx="209.87" cy="456.27" r="6.98" fill="#111111"/><circle cx="230.40" cy="456.27" r="6.98" fill="#111111"/><polygon points="257.28,452.60 257.28,459.93 250.93,463.60 244.59,459.93 244.59,452.60 250.93,448.94" fill="#111111"/><circle cx="271.47" cy="456.27" r="6.98" fill="#111111"/><circle cx="292.00" cy="456.27" r="6.98" fill="#111111"/><circle cx="353.60" cy="456.27" r="6.98" fill="#111111"/><circle cx="558.93" cy="456.27" r="6.98" fill="#111111"/><circle cx="620.53" cy="456.27" r="6.98" fill="#111111"/><circle cx="702.67" cy="456.27" r="6.98" fill="#111111"/><circle cx="723.20" cy="456.27" r="6.98" fill="#111111"/><circle cx="764.27" cy="456.27" r="6.98" fill="#111111"/><polygon points="914.35,452.60 914.35,459.93 908.00,463.60 901.65,459.93 901.65,452.60 908.00,448.94" fill="#111111"/><circle cx="1010.67" cy="456.27" r="6.98" fill="#111111"/><polygon points="236.75,473.13 236.75,480.47 230.40,484.13 224.05,480.47 224.05,473.13 230.40,469.47" fill="#111111"/><circle cx="292.00" cy="476.80" r="6.98" fill="#111111"/><polygon points="318.88,473.13 318.88,480.47 312.53,484.13 306.19,480.47 306.19,473.13 312.53,469.47" fill="#111111"/><circle cx="333.07" cy="476.80" r="6.98" fill="#111111"/><circle cx="353.60" cy="476.80" r="6.98" fill="#111111"/><circle cx="374.13" cy="476.80" r="6.98" fill="#111111"/><polygon points="401.01,473.13 401.01,480.47 394.67,484.13 388.32,480.47 388.32,473.13 394.67,469.47" fill="#111111"/><circle cx="415.20" cy="476.80" r="6.98" fill="#111111"/><circle cx="435.73" cy="476.80" r="6.98" fill="#111111"/><circle cx="497.33" cy="476.80" r="6.98" fill="#111111"/><circle cx="517.87" cy="476.80" r="6.98" fill="#111111"/><circle cx="538.40" cy="476.80" r="6.98" fill="#111111"/><polygon points="565.28,473.13 565.28,480.47 558.93,484.13 552.59,480.47 552.59,473.13 558.93,469.47" fill="#111111"/><circle cx="579.47" cy="476.80" r="6.98" fill="#111111"/><circle cx="600.00" cy="476.80" r="6.98" fill="#111111"/><circle cx="620.53" cy="476.80" r="6.98" fill="#111111"/><polygon points="647.41,473.13 647.41,480.47 641.07,484.13 634.72,480.47 634.72,473.13 641.07,469.47" fill="#111111"/><circle cx="682.13" cy="476.80" r="6.98" fill="#111111"/><circle cx="702.67" cy="476.80" r="6.98" fill="#111111"/><polygon points="729.55,473.13 729.55,480.47 723.20,484.13 716.85,480.47 716.85,473.13 723.20,469.47" fill="#111111"/><circle cx="764.27" cy="476.80" r="6.98" fill="#111111"/><circle cx="784.80" cy="476.80" r="6.98" fill="#111111"/><polygon points="811.68,473.13 811.68,480.47 805.33,484.13 798.99,480.47 798.99,473.13 805.33,469.47" fill="#111111"/><circle cx="825.87" cy="476.80" r="6.98" fill="#111111"/><circle cx="866.93" cy="476.80" r="6.98" fill="#111111"/><polygon points="893.81,473.13 893.81,480.47 887.47,484.13 881.12,480.47 881.12,473.13 887.47,469.47" fill="#111111"/><circle cx="908.00" cy="476.80" r="6.98" fill="#111111"/><circle cx="949.07" cy="476.80" r="6.98" fill="#111111"/><circle cx="1010.67" cy="476.80" r="6.98" fill="#111111"/><circle cx="250.93" cy="497.33" r="6.98" fill="#111111"/><circle cx="271.47" cy="497.33" r="6.98" fill="#111111"/><polygon points="298.35,493.67 298.35,501.00 292.00,504.66 285.65,501.00 285.65,493.67 292.00,490.00" fill="#111111"/><circle cx="333.07" cy="497.33" r="6.98" fill="#111111"/><circle cx="415.20" cy="497.33" r="6.98" fill="#111111"/><circle cx="435.73" cy="497.33" r="6.98" fill="#111111"/><circle cx="497.33" cy="497.33" r="6.98" fill="#111111"/><circle cx="579.47" cy="497.33" r="6.98" fill="#111111"/><circle cx="600.00" cy="497.33" r="6.98" fill="#111111"/><polygon points="626.88,493.67 626.88,501.00 620.53,504.66 614.19,501.00 614.19,493.67 620.53,490.00" fill="#111111"/><circle cx="641.07" cy="497.33" r="6.98" fill="#111111"/><circle cx="682.13" cy="497.33" r="6.98" fill="#111111"/><circle cx="743.73" cy="497.33" r="6.98" fill="#111111"/><circle cx="764.27" cy="497.33" r="6.98" fill="#111111"/><polygon points="873.28,493.67 873.28,501.00 866.93,504.66 860.59,501.00 860.59,493.67 866.93,490.00" fill="#111111"/><circle cx="887.47" cy="497.33" r="6.98" fill="#111111"/><polygon points="955.41,493.67 955.41,501.00 949.07,504.66 942.72,501.00 942.72,493.67 949.07,490.00" fill="#111111"/><circle cx="990.13" cy="497.33" r="6.98" fill="#111111"/><circle cx="250.93" cy="517.87" r="6.98" fill="#111111"/><polygon points="277.81,514.20 277.81,521.53 271.47,525.20 265.12,521.53 265.12,514.20 271.47,510.54" fill="#111111"/><circle cx="292.00" cy="517.87" r="6.98" fill="#111111"/><circle cx="312.53" cy="517.87" r="6.98" fill="#111111"/><circle cx="333.07" cy="517.87" r="6.98" fill="#111111"/><polygon points="359.95,514.20 359.95,521.53 353.60,525.20 347.25,521.53 347.25,514.20 353.60,510.54" fill="#111111"/><circle cx="415.20" cy="517.87" r="6.98" fill="#111111"/><circle cx="456.27" cy="517.87" r="6.98" fill="#111111"/><circle cx="476.80" cy="517.87" r="6.98" fill="#111111"/><circle cx="538.40" cy="517.87" r="6.98" fill="#111111"/><circle cx="579.47" cy="517.87" r="6.98" fill="#111111"/><circle cx="661.60" cy="517.87" r="6.98" fill="#111111"/><circle cx="723.20" cy="517.87" r="6.98" fill="#111111"/><polygon points="770.61,514.20 770.61,521.53 764.27,525.20 757.92,521.53 757.92,514.20 764.27,510.54" fill="#111111"/><circle cx="784.80" cy="517.87" r="6.98" fill="#111111"/><circle cx="825.87" cy="517.87" r="6.98" fill="#111111"/><circle cx="866.93" cy="517.87" r="6.98" fill="#111111"/><circle cx="887.47" cy="517.87" r="6.98" fill="#111111"/><circle cx="949.07" cy="517.87" r="6.98" fill="#111111"/><circle cx="990.13" cy="517.87" r="6.98" fill="#111111"/><circle cx="209.87" cy="538.40" r="6.98" fill="#111111"/><circle cx="230.40" cy="538.40" r="6.98" fill="#111111"/><circle cx="271.47" cy="538.40" r="6.98" fill="#111111"/><circle cx="292.00" cy="538.40" r="6.98" fill="#111111"/><circle cx="374.13" cy="538.40" r="6.98" fill="#111111"/><polygon points="421.55,534.73 421.55,542.07 415.20,545.73 408.85,542.07 408.85,534.73 415.20,531.07" fill="#111111"/><circle cx="435.73" cy="538.40" r="6.98" fill="#111111"/><circle cx="476.80" cy="538.40" r="6.98" fill="#111111"/><circle cx="517.87" cy="538.40" r="6.98" fill="#111111"/><circle cx="538.40" cy="538.40" r="6.98" fill="#111111"/><polygon points="667.95,534.73 667.95,542.07 661.60,545.73 655.25,542.07 655.25,534.73 661.60,531.07" fill="#111111"/><circle cx="682.13" cy="538.40" r="6.98" fill="#111111"/><circle cx="702.67" cy="538.40" r="6.98" fill="#111111"/><circle cx="764.27" cy="538.40" r="6.98" fill="#111111"/><polygon points="832.21,534.73 832.21,542.07 825.87,545.73 819.52,542.07 819.52,534.73 825.87,531.07" fill="#111111"/><circle cx="866.93" cy="538.40" r="6.98" fill="#111111"/><circle cx="887.47" cy="538.40" r="6.98" fill="#111111"/><polygon points="914.35,534.73 914.35,542.07 908.00,545.73 901.65,542.07 901.65,534.73 908.00,531.07" fill="#111111"/><circle cx="949.07" cy="538.40" r="6.98" fill="#111111"/><circle cx="1010.67" cy="538.40" r="6.98" fill="#111111"/><polygon points="236.75,555.27 236.75,562.60 230.40,566.26 224.05,562.60 224.05,555.27 230.40,551.60" fill="#111111"/><circle cx="250.93" cy="558.93" r="6.98" fill="#111111"/><circle cx="271.47" cy="558.93" r="6.98" fill="#111111"/><polygon points="318.88,555.27 318.88,562.60 312.53,566.26 306.19,562.60 306.19,555.27 312.53,551.60" fill="#111111"/><circle cx="333.07" cy="558.93" r="6.98" fill="#111111"/><circle cx="374.13" cy="558.93" r="6.98" fill="#111111"/><polygon points="401.01,555.27 401.01,562.60 394.67,566.26 388.32,562.60 388.32,555.27 394.67,551.60" fill="#111111"/><circle cx="435.73" cy="558.93" r="6.98" fill="#111111"/><circle cx="682.13" cy="558.93" r="6.98" fill="#111111"/><circle cx="702.67" cy="558.93" r="6.98" fill="#111111"/><circle cx="743.73" cy="558.93" r="6.98" fill="#111111"/><circle cx="784.80" cy="558.93" r="6.98" fill="#111111"/><polygon points="811.68,555.27 811.68,562.60 805.33,566.26 798.99,562.60 798.99,555.27 805.33,551.60" fill="#111111"/><circle cx="825.87" cy="558.93" r="6.98" fill="#111111"/><circle cx="846.40" cy="558.93" r="6.98" fill="#111111"/><circle cx="866.93" cy="558.93" r="6.98" fill="#111111"/><polygon points="893.81,555.27 893.81,562.60 887.47,566.26 881.12,562.60 881.12,555.27 887.47,551.60" fill="#111111"/><circle cx="908.00" cy="558.93" r="6.98" fill="#111111"/><circle cx="928.53" cy="558.93" r="6.98" fill="#111111"/><circle cx="949.07" cy="558.93" r="6.98" fill="#111111"/><circle cx="1010.67" cy="558.93" r="6.98" fill="#111111"/><circle cx="189.33" cy="579.47" r="6.98" fill="#111111"/><circle cx="230.40" cy="579.47" r="6.98" fill="#111111"/><circle cx="250.93" cy="579.47" r="6.98" fill="#111111"/><circle cx="271.47" cy="579.47" r="6.98" fill="#111111"/><circle cx="333.07" cy="579.47" r="6.98" fill="#111111"/><circle cx="353.60" cy="579.47" r="6.98" fill="#111111"/><circle cx="394.67" cy="579.47" r="6.98" fill="#111111"/><circle cx="435.73" cy="579.47" r="6.98" fill="#111111"/><circle cx="497.33" cy="579.47" r="6.98" fill="#111111"/><circle cx="517.87" cy="579.47" r="6.98" fill="#111111"/><circle cx="743.73" cy="579.47" r="6.98" fill="#111111"/><circle cx="764.27" cy="579.47" r="6.98" fill="#111111"/><circle cx="805.33" cy="579.47" r="6.98" fill="#111111"/><circle cx="846.40" cy="579.47" r="6.98" fill="#111111"/><polygon points="873.28,575.80 873.28,583.13 866.93,586.80 860.59,583.13 860.59,575.80 866.93,572.14" fill="#111111"/><polygon points="955.41,575.80 955.41,583.13 949.07,586.80 942.72,583.13 942.72,575.80 949.07,572.14" fill="#111111"/><circle cx="990.13" cy="579.47" r="6.98" fill="#111111"/><polygon points="195.68,596.33 195.68,603.67 189.33,607.33 182.99,603.67 182.99,596.33 189.33,592.67" fill="#111111"/><circle cx="250.93" cy="600.00" r="6.98" fill="#111111"/><circle cx="292.00" cy="600.00" r="6.98" fill="#111111"/><circle cx="312.53" cy="600.00" r="6.98" fill="#111111"/><circle cx="456.27" cy="600.00" r="6.98" fill="#111111"/><circle cx="476.80" cy="600.00" r="6.98" fill="#111111"/><circle cx="497.33" cy="600.00" r="6.98" fill="#111111"/><polygon points="524.21,596.33 524.21,603.67 517.87,607.33 511.52,603.67 511.52,596.33 517.87,592.67" fill="#111111"/><polygon points="688.48,596.33 688.48,603.67 682.13,607.33 675.79,603.67 675.79,596.33 682.13,592.67" fill="#111111"/><polygon points="770.61,596.33 770.61,603.67 764.27,607.33 757.92,603.67 757.92,596.33 764.27,592.67" fill="#111111"/><circle cx="784.80" cy="600.00" r="6.98" fill="#111111"/><circle cx="805.33" cy="600.00" r="6.98" fill="#111111"/><polygon points="852.75,596.33 852.75,603.67 846.40,607.33 840.05,603.67 840.05,596.33 846.40,592.67" fill="#111111"/><circle cx="887.47" cy="600.00" r="6.98" fill="#111111"/><polygon points="934.88,596.33 934.88,603.67 928.53,607.33 922.19,603.67 922.19,596.33 928.53,592.67" fill="#111111"/><circle cx="990.13" cy="600.00" r="6.98" fill="#111111"/><circle cx="209.87" cy="620.53" r="6.98" fill="#111111"/><circle cx="230.40" cy="620.53" r="6.98" fill="#111111"/><polygon points="257.28,616.87 257.28,624.20 250.93,627.86 244.59,624.20 244.59,616.87 250.93,613.20" fill="#111111"/><circle cx="271.47" cy="620.53" r="6.98" fill="#111111"/><circle cx="394.67" cy="620.53" r="6.98" fill="#111111"/><polygon points="421.55,616.87 421.55,624.20 415.20,627.86 408.85,624.20 408.85,616.87 415.20,613.20" fill="#111111"/><circle cx="435.73" cy="620.53" r="6.98" fill="#111111"/><circle cx="517.87" cy="620.53" r="6.98" fill="#111111"/><polygon points="750.08,616.87 750.08,624.20 743.73,627.86 737.39,624.20 737.39,616.87 743.73,613.20" fill="#111111"/><circle cx="764.27" cy="620.53" r="6.98" fill="#111111"/><circle cx="805.33" cy="620.53" r="6.98" fill="#111111"/><polygon points="832.21,616.87 832.21,624.20 825.87,627.86 819.52,624.20 819.52,616.87 825.87,613.20" fill="#111111"/><circle cx="846.40" cy="620.53" r="6.98" fill="#111111"/><circle cx="866.93" cy="620.53" r="6.98" fill="#111111"/><circle cx="887.47" cy="620.53" r="6.98" fill="#111111"/><circle cx="1010.67" cy="620.53" r="6.98" fill="#111111"/><circle cx="209.87" cy="641.07" r="6.98" fill="#111111"/><circle cx="250.93" cy="641.07" r="6.98" fill="#111111"/><circle cx="292.00" cy="641.07" r="6.98" fill="#111111"/><polygon points="318.88,637.40 318.88,644.73 312.53,648.40 306.19,644.73 306.19,637.40 312.53,633.74" fill="#111111"/><circle cx="374.13" cy="641.07" r="6.98" fill="#111111"/><polygon points="401.01,637.40 401.01,644.73 394.67,648.40 388.32,644.73 388.32,637.40 394.67,633.74" fill="#111111"/><circle cx="497.33" cy="641.07" r="6.98" fill="#111111"/><circle cx="517.87" cy="641.07" r="6.98" fill="#111111"/><circle cx="682.13" cy="641.07" r="6.98" fill="#111111"/><circle cx="702.67" cy="641.07" r="6.98" fill="#111111"/><polygon points="729.55,637.40 729.55,644.73 723.20,648.40 716.85,644.73 716.85,637.40 723.20,633.74" fill="#111111"/><circle cx="743.73" cy="641.07" r="6.98" fill="#111111"/><circle cx="764.27" cy="641.07" r="6.98" fill="#111111"/><circle cx="825.87" cy="641.07" r="6.98" fill="#111111"/><circle cx="846.40" cy="641.07" r="6.98" fill="#111111"/><polygon points="893.81,637.40 893.81,644.73 887.47,648.40 881.12,644.73 881.12,637.40 887.47,633.74" fill="#111111"/><circle cx="928.53" cy="641.07" r="6.98" fill="#111111"/><circle cx="949.07" cy="641.07" r="6.98" fill="#111111"/><polygon points="975.95,637.40 975.95,644.73 969.60,648.40 963.25,644.73 963.25,637.40 969.60,633.74" fill="#111111"/><circle cx="1010.67" cy="641.07" r="6.98" fill="#111111"/><circle cx="230.40" cy="661.60" r="6.98" fill="#111111"/><circle cx="250.93" cy="661.60" r="6.98" fill="#111111"/><polygon points="298.35,657.93 298.35,665.27 292.00,668.93 285.65,665.27 285.65,657.93 292.00,654.27" fill="#111111"/><circle cx="353.60" cy="661.60" r="6.98" fill="#111111"/><circle cx="394.67" cy="661.60" r="6.98" fill="#111111"/><circle cx="415.20" cy="661.60" r="6.98" fill="#111111"/><circle cx="476.80" cy="661.60" r="6.98" fill="#111111"/><circle cx="661.60" cy="661.60" r="6.98" fill="#111111"/><polygon points="709.01,657.93 709.01,665.27 702.67,668.93 696.32,665.27 696.32,657.93 702.67,654.27" fill="#111111"/><circle cx="743.73" cy="661.60" r="6.98" fill="#111111"/><circle cx="764.27" cy="661.60" r="6.98" fill="#111111"/><circle cx="805.33" cy="661.60" r="6.98" fill="#111111"/><circle cx="825.87" cy="661.60" r="6.98" fill="#111111"/><circle cx="846.40" cy="661.60" r="6.98" fill="#111111"/><polygon points="873.28,657.93 873.28,665.27 866.93,668.93 860.59,665.27 860.59,657.93 866.93,654.27" fill="#111111"/><circle cx="1010.67" cy="661.60" r="6.98" fill="#111111"/><polygon points="195.68,678.47 195.68,685.80 189.33,689.46 182.99,685.80 182.99,678.47 189.33,674.80" fill="#111111"/><circle cx="209.87" cy="682.13" r="6.98" fill="#111111"/><circle cx="292.00" cy="682.13" r="6.98" fill="#111111"/><circle cx="312.53" cy="682.13" r="6.98" fill="#111111"/><circle cx="333.07" cy="682.13" r="6.98" fill="#111111"/><polygon points="359.95,678.47 359.95,685.80 353.60,689.46 347.25,685.80 347.25,678.47 353.60,674.80" fill="#111111"/><circle cx="374.13" cy="682.13" r="6.98" fill="#111111"/><circle cx="415.20" cy="682.13" r="6.98" fill="#111111"/><polygon points="442.08,678.47 442.08,685.80 435.73,689.46 429.39,685.80 429.39,678.47 435.73,674.80" fill="#111111"/><circle cx="476.80" cy="682.13" r="6.98" fill="#111111"/><circle cx="538.40" cy="682.13" r="6.98" fill="#111111"/><circle cx="558.93" cy="682.13" r="6.98" fill="#111111"/><circle cx="579.47" cy="682.13" r="6.98" fill="#111111"/><polygon points="606.35,678.47 606.35,685.80 600.00,689.46 593.65,685.80 593.65,678.47 600.00,674.80" fill="#111111"/><circle cx="641.07" cy="682.13" r="6.98" fill="#111111"/><circle cx="661.60" cy="682.13" r="6.98" fill="#111111"/><circle cx="723.20" cy="682.13" r="6.98" fill="#111111"/><circle cx="743.73" cy="682.13" r="6.98" fill="#111111"/><polygon points="770.61,678.47 770.61,685.80 764.27,689.46 757.92,685.80 757.92,678.47 764.27,674.80" fill="#111111"/><polygon points="852.75,678.47 852.75,685.80 846.40,689.46 840.05,685.80 840.05,678.47 846.40,674.80" fill="#111111"/><circle cx="887.47" cy="682.13" r="6.98" fill="#111111"/><circle cx="949.07" cy="682.13" r="6.98" fill="#111111"/><circle cx="969.60" cy="682.13" r="6.98" fill="#111111"/><polygon points="1017.01,678.47 1017.01,685.80 1010.67,689.46 1004.32,685.80 1004.32,678.47 1010.67,674.80" fill="#111111"/><circle cx="189.33" cy="702.67" r="6.98" fill="#111111"/><circle cx="209.87" cy="702.67" r="6.98" fill="#111111"/><circle cx="230.40" cy="702.67" r="6.98" fill="#111111"/><circle cx="271.47" cy="702.67" r="6.98" fill="#111111"/><circle cx="292.00" cy="702.67" r="6.98" fill="#111111"/><circle cx="353.60" cy="702.67" r="6.98" fill="#111111"/><circle cx="394.67" cy="702.67" r="6.98" fill="#111111"/><circle cx="456.27" cy="702.67" r="6.98" fill="#111111"/><circle cx="517.87" cy="702.67" r="6.98" fill="#111111"/><circle cx="558.93" cy="702.67" r="6.98" fill="#111111"/><polygon points="585.81,699.00 585.81,706.33 579.47,710.00 573.12,706.33 573.12,699.00 579.47,695.34" fill="#111111"/><circle cx="620.53" cy="702.67" r="6.98" fill="#111111"/><polygon points="667.95,699.00 667.95,706.33 661.60,710.00 655.25,706.33 655.25,699.00 661.60,695.34" fill="#111111"/><circle cx="682.13" cy="702.67" r="6.98" fill="#111111"/><polygon points="750.08,699.00 750.08,706.33 743.73,710.00 737.39,706.33 737.39,699.00 743.73,695.34" fill="#111111"/><circle cx="764.27" cy="702.67" r="6.98" fill="#111111"/><circle cx="784.80" cy="702.67" r="6.98" fill="#111111"/><circle cx="805.33" cy="702.67" r="6.98" fill="#111111"/><polygon points="832.21,699.00 832.21,706.33 825.87,710.00 819.52,706.33 819.52,699.00 825.87,695.34" fill="#111111"/><circle cx="887.47" cy="702.67" r="6.98" fill="#111111"/><polygon points="914.35,699.00 914.35,706.33 908.00,710.00 901.65,706.33 901.65,699.00 908.00,695.34" fill="#111111"/><circle cx="949.07" cy="702.67" r="6.98" fill="#111111"/><circle cx="189.33" cy="723.20" r="6.98" fill="#111111"/><circle cx="250.93" cy="723.20" r="6.98" fill="#111111"/><circle cx="271.47" cy="723.20" r="6.98" fill="#111111"/><circle cx="292.00" cy="723.20" r="6.98" fill="#111111"/><polygon points="318.88,719.53 318.88,726.87 312.53,730.53 306.19,726.87 306.19,719.53 312.53,715.87" fill="#111111"/><circle cx="333.07" cy="723.20" r="6.98" fill="#111111"/><circle cx="353.60" cy="723.20" r="6.98" fill="#111111"/><circle cx="435.73" cy="723.20" r="6.98" fill="#111111"/><circle cx="456.27" cy="723.20" r="6.98" fill="#111111"/><polygon points="483.15,719.53 483.15,726.87 476.80,730.53 470.45,726.87 470.45,719.53 476.80,715.87" fill="#111111"/><polygon points="565.28,719.53 565.28,726.87 558.93,730.53 552.59,726.87 552.59,719.53 558.93,715.87" fill="#111111"/><circle cx="600.00" cy="723.20" r="6.98" fill="#111111"/><circle cx="743.73" cy="723.20" r="6.98" fill="#111111"/><circle cx="764.27" cy="723.20" r="6.98" fill="#111111"/><circle cx="784.80" cy="723.20" r="6.98" fill="#111111"/><circle cx="825.87" cy="723.20" r="6.98" fill="#111111"/><circle cx="866.93" cy="723.20" r="6.98" fill="#111111"/><polygon points="893.81,719.53 893.81,726.87 887.47,730.53 881.12,726.87 881.12,719.53 887.47,715.87" fill="#111111"/><circle cx="949.07" cy="723.20" r="6.98" fill="#111111"/><polygon points="975.95,719.53 975.95,726.87 969.60,730.53 963.25,726.87 963.25,719.53 969.60,715.87" fill="#111111"/><circle cx="990.13" cy="723.20" r="6.98" fill="#111111"/><circle cx="1010.67" cy="723.20" r="6.98" fill="#111111"/><circle cx="230.40" cy="743.73" r="6.98" fill="#111111"/><circle cx="250.93" cy="743.73" r="6.98" fill="#111111"/><circle cx="353.60" cy="743.73" r="6.98" fill="#111111"/><circle cx="394.67" cy="743.73" r="6.98" fill="#111111"/><circle cx="435.73" cy="743.73" r="6.98" fill="#111111"/><polygon points="462.61,740.07 462.61,747.40 456.27,751.06 449.92,747.40 449.92,740.07 456.27,736.40" fill="#111111"/><circle cx="579.47" cy="743.73" r="6.98" fill="#111111"/><circle cx="600.00" cy="743.73" r="6.98" fill="#111111"/><polygon points="626.88,740.07 626.88,747.40 620.53,751.06 614.19,747.40 614.19,740.07 620.53,736.40" fill="#111111"/><polygon points="709.01,740.07 709.01,747.40 702.67,751.06 696.32,747.40 696.32,740.07 702.67,736.40" fill="#111111"/><circle cx="723.20" cy="743.73" r="6.98" fill="#111111"/><circle cx="743.73" cy="743.73" r="6.98" fill="#111111"/><circle cx="764.27" cy="743.73" r="6.98" fill="#111111"/><circle cx="805.33" cy="743.73" r="6.98" fill="#111111"/><circle cx="825.87" cy="743.73" r="6.98" fill="#111111"/><circle cx="846.40" cy="743.73" r="6.98" fill="#111111"/><polygon points="873.28,740.07 873.28,747.40 866.93,751.06 860.59,747.40 860.59,740.07 866.93,736.40" fill="#111111"/><circle cx="908.00" cy="743.73" r="6.98" fill="#111111"/><circle cx="928.53" cy="743.73" r="6.98" fill="#111111"/><polygon points="955.41,740.07 955.41,747.40 949.07,751.06 942.72,747.40 942.72,740.07 949.07,736.40" fill="#111111"/><circle cx="230.40" cy="764.27" r="6.98" fill="#111111"/><polygon points="277.81,760.60 277.81,767.93 271.47,771.60 265.12,767.93 265.12,760.60 271.47,756.94" fill="#111111"/><circle cx="292.00" cy="764.27" r="6.98" fill="#111111"/><circle cx="312.53" cy="764.27" r="6.98" fill="#111111"/><circle cx="333.07" cy="764.27" r="6.98" fill="#111111"/><polygon points="442.08,760.60 442.08,767.93 435.73,771.60 429.39,767.93 429.39,760.60 435.73,756.94" fill="#111111"/><circle cx="476.80" cy="764.27" r="6.98" fill="#111111"/><circle cx="497.33" cy="764.27" r="6.98" fill="#111111"/><polygon points="524.21,760.60 524.21,767.93 517.87,771.60 511.52,767.93 511.52,760.60 517.87,756.94" fill="#111111"/><circle cx="579.47" cy="764.27" r="6.98" fill="#111111"/><polygon points="606.35,760.60 606.35,767.93 600.00,771.60 593.65,767.93 593.65,760.60 600.00,756.94" fill="#111111"/><circle cx="620.53" cy="764.27" r="6.98" fill="#111111"/><circle cx="641.07" cy="764.27" r="6.98" fill="#111111"/><circle cx="661.60" cy="764.27" r="6.98" fill="#111111"/><circle cx="805.33" cy="764.27" r="6.98" fill="#111111"/><polygon points="852.75,760.60 852.75,767.93 846.40,771.60 840.05,767.93 840.05,760.60 846.40,756.94" fill="#111111"/><circle cx="866.93" cy="764.27" r="6.98" fill="#111111"/><circle cx="887.47" cy="764.27" r="6.98" fill="#111111"/><circle cx="908.00" cy="764.27" r="6.98" fill="#111111"/><circle cx="230.40" cy="784.80" r="6.98" fill="#111111"/><circle cx="271.47" cy="784.80" r="6.98" fill="#111111"/><circle cx="435.73" cy="784.80" r="6.98" fill="#111111"/><circle cx="456.27" cy="784.80" r="6.98" fill="#111111"/><polygon points="503.68,781.13 503.68,788.47 497.33,792.13 490.99,788.47 490.99,781.13 497.33,777.47" fill="#111111"/><circle cx="558.93" cy="784.80" r="6.98" fill="#111111"/><circle cx="682.13" cy="784.80" r="6.98" fill="#111111"/><circle cx="702.67" cy="784.80" r="6.98" fill="#111111"/><circle cx="723.20" cy="784.80" r="6.98" fill="#111111"/><circle cx="846.40" cy="784.80" r="6.98" fill="#111111"/><circle cx="866.93" cy="784.80" r="6.98" fill="#111111"/><polygon points="914.35,781.13 914.35,788.47 908.00,792.13 901.65,788.47 901.65,781.13 908.00,777.47" fill="#111111"/><circle cx="1010.67" cy="784.80" r="6.98" fill="#111111"/><circle cx="209.87" cy="805.33" r="6.98" fill="#111111"/><polygon points="236.75,801.67 236.75,809.00 230.40,812.66 224.05,809.00 224.05,801.67 230.40,798.00" fill="#111111"/><circle cx="250.93" cy="805.33" r="6.98" fill="#111111"/><circle cx="271.47" cy="805.33" r="6.98" fill="#111111"/><polygon points="318.88,801.67 318.88,809.00 312.53,812.66 306.19,809.00 306.19,801.67 312.53,798.00" fill="#111111"/><circle cx="333.07" cy="805.33" r="6.98" fill="#111111"/><circle cx="353.60" cy="805.33" r="6.98" fill="#111111"/><circle cx="374.13" cy="805.33" r="6.98" fill="#111111"/><polygon points="401.01,801.67 401.01,809.00 394.67,812.66 388.32,809.00 388.32,801.67 394.67,798.00" fill="#111111"/><circle cx="415.20" cy="805.33" r="6.98" fill="#111111"/><circle cx="456.27" cy="805.33" r="6.98" fill="#111111"/><polygon points="483.15,801.67 483.15,809.00 476.80,812.66 470.45,809.00 470.45,801.67 476.80,798.00" fill="#111111"/><circle cx="497.33" cy="805.33" r="6.98" fill="#111111"/><circle cx="517.87" cy="805.33" r="6.98" fill="#111111"/><polygon points="565.28,801.67 565.28,809.00 558.93,812.66 552.59,809.00 552.59,801.67 558.93,798.00" fill="#111111"/><circle cx="620.53" cy="805.33" r="6.98" fill="#111111"/><polygon points="647.41,801.67 647.41,809.00 641.07,812.66 634.72,809.00 634.72,801.67 641.07,798.00" fill="#111111"/><circle cx="743.73" cy="805.33" r="6.98" fill="#111111"/><circle cx="784.80" cy="805.33" r="6.98" fill="#111111"/><polygon points="811.68,801.67 811.68,809.00 805.33,812.66 798.99,809.00 798.99,801.67 805.33,798.00" fill="#111111"/><circle cx="846.40" cy="805.33" r="6.98" fill="#111111"/><circle cx="866.93" cy="805.33" r="6.98" fill="#111111"/><circle cx="908.00" cy="805.33" r="6.98" fill="#111111"/><polygon points="975.95,801.67 975.95,809.00 969.60,812.66 963.25,809.00 963.25,801.67 969.60,798.00" fill="#111111"/><circle cx="250.93" cy="825.87" r="6.98" fill="#111111"/><circle cx="333.07" cy="825.87" r="6.98" fill="#111111"/><circle cx="353.60" cy="825.87" r="6.98" fill="#111111"/><circle cx="394.67" cy="825.87" r="6.98" fill="#111111"/><circle cx="435.73" cy="825.87" r="6.98" fill="#111111"/><polygon points="462.61,822.20 462.61,829.53 456.27,833.20 449.92,829.53 449.92,822.20 456.27,818.54" fill="#111111"/><circle cx="476.80" cy="825.87" r="6.98" fill="#111111"/><circle cx="517.87" cy="825.87" r="6.98" fill="#111111"/><circle cx="579.47" cy="825.87" r="6.98" fill="#111111"/><circle cx="600.00" cy="825.87" r="6.98" fill="#111111"/><polygon points="626.88,822.20 626.88,829.53 620.53,833.20 614.19,829.53 614.19,822.20 620.53,818.54" fill="#111111"/><circle cx="641.07" cy="825.87" r="6.98" fill="#111111"/><circle cx="661.60" cy="825.87" r="6.98" fill="#111111"/><circle cx="682.13" cy="825.87" r="6.98" fill="#111111"/><polygon points="791.15,822.20 791.15,829.53 784.80,833.20 778.45,829.53 778.45,822.20 784.80,818.54" fill="#111111"/><circle cx="805.33" cy="825.87" r="6.98" fill="#111111"/><circle cx="825.87" cy="825.87" r="6.98" fill="#111111"/><circle cx="846.40" cy="825.87" r="6.98" fill="#111111"/><circle cx="887.47" cy="825.87" r="6.98" fill="#111111"/><polygon points="955.41,822.20 955.41,829.53 949.07,833.20 942.72,829.53 942.72,822.20 949.07,818.54" fill="#111111"/><circle cx="250.93" cy="846.40" r="6.98" fill="#111111"/><polygon points="277.81,842.73 277.81,850.07 271.47,853.73 265.12,850.07 265.12,842.73 271.47,839.07" fill="#111111"/><circle cx="312.53" cy="846.40" r="6.98" fill="#111111"/><circle cx="333.07" cy="846.40" r="6.98" fill="#111111"/><circle cx="456.27" cy="846.40" r="6.98" fill="#111111"/><polygon points="524.21,842.73 524.21,850.07 517.87,853.73 511.52,850.07 511.52,842.73 517.87,839.07" fill="#111111"/><circle cx="538.40" cy="846.40" r="6.98" fill="#111111"/><circle cx="620.53" cy="846.40" r="6.98" fill="#111111"/><circle cx="641.07" cy="846.40" r="6.98" fill="#111111"/><polygon points="688.48,842.73 688.48,850.07 682.13,853.73 675.79,850.07 675.79,842.73 682.13,839.07" fill="#111111"/><circle cx="702.67" cy="846.40" r="6.98" fill="#111111"/><circle cx="743.73" cy="846.40" r="6.98" fill="#111111"/><circle cx="784.80" cy="846.40" r="6.98" fill="#111111"/><polygon points="852.75,842.73 852.75,850.07 846.40,853.73 840.05,850.07 840.05,842.73 846.40,839.07" fill="#111111"/><circle cx="866.93" cy="846.40" r="6.98" fill="#111111"/><circle cx="887.47" cy="846.40" r="6.98" fill="#111111"/><circle cx="908.00" cy="846.40" r="6.98" fill="#111111"/><polygon points="934.88,842.73 934.88,850.07 928.53,853.73 922.19,850.07 922.19,842.73 928.53,839.07" fill="#111111"/><circle cx="353.60" cy="866.93" r="6.98" fill="#111111"/><circle cx="374.13" cy="866.93" r="6.98" fill="#111111"/><circle cx="394.67" cy="866.93" r="6.98" fill="#111111"/><circle cx="435.73" cy="866.93" r="6.98" fill="#111111"/><circle cx="456.27" cy="866.93" r="6.98" fill="#111111"/><circle cx="476.80" cy="866.93" r="6.98" fill="#111111"/><polygon points="503.68,863.27 503.68,870.60 497.33,874.26 490.99,870.60 490.99,863.27 497.33,859.60" fill="#111111"/><circle cx="538.40" cy="866.93" r="6.98" fill="#111111"/><circle cx="558.93" cy="866.93" r="6.98" fill="#111111"/><polygon points="667.95,863.27 667.95,870.60 661.60,874.26 655.25,870.60 655.25,863.27 661.60,859.60" fill="#111111"/><circle cx="723.20" cy="866.93" r="6.98" fill="#111111"/><circle cx="784.80" cy="866.93" r="6.98" fill="#111111"/><circle cx="846.40" cy="866.93" r="6.98" fill="#111111"/><circle cx="928.53" cy="866.93" r="6.98" fill="#111111"/><circle cx="969.60" cy="866.93" r="6.98" fill="#111111"/><circle cx="353.60" cy="887.47" r="6.98" fill="#111111"/><polygon points="401.01,883.80 401.01,891.13 394.67,894.80 388.32,891.13 388.32,883.80 394.67,880.14" fill="#111111"/><circle cx="435.73" cy="887.47" r="6.98" fill="#111111"/><polygon points="483.15,883.80 483.15,891.13 476.80,894.80 470.45,891.13 470.45,883.80 476.80,880.14" fill="#111111"/><circle cx="497.33" cy="887.47" r="6.98" fill="#111111"/><circle cx="538.40" cy="887.47" r="6.98" fill="#111111"/><polygon points="565.28,883.80 565.28,891.13 558.93,894.80 552.59,891.13 552.59,883.80 558.93,880.14" fill="#111111"/><circle cx="579.47" cy="887.47" r="6.98" fill="#111111"/><circle cx="600.00" cy="887.47" r="6.98" fill="#111111"/><circle cx="620.53" cy="887.47" r="6.98" fill="#111111"/><polygon points="647.41,883.80 647.41,891.13 641.07,894.80 634.72,891.13 634.72,883.80 641.07,880.14" fill="#111111"/><polygon points="729.55,883.80 729.55,891.13 723.20,894.80 716.85,891.13 716.85,883.80 723.20,880.14" fill="#111111"/><circle cx="846.40" cy="887.47" r="6.98" fill="#111111"/><polygon points="893.81,883.80 893.81,891.13 887.47,894.80 881.12,891.13 881.12,883.80 887.47,880.14" fill="#111111"/><circle cx="928.53" cy="887.47" r="6.98" fill="#111111"/><circle cx="353.60" cy="908.00" r="6.98" fill="#111111"/><polygon points="380.48,904.33 380.48,911.67 374.13,915.33 367.79,911.67 367.79,904.33 374.13,900.67" fill="#111111"/><circle cx="394.67" cy="908.00" r="6.98" fill="#111111"/><polygon points="462.61,904.33 462.61,911.67 456.27,915.33 449.92,911.67 449.92,904.33 456.27,900.67" fill="#111111"/><circle cx="497.33" cy="908.00" r="6.98" fill="#111111"/><circle cx="558.93" cy="908.00" r="6.98" fill="#111111"/><circle cx="600.00" cy="908.00" r="6.98" fill="#111111"/><polygon points="626.88,904.33 626.88,911.67 620.53,915.33 614.19,911.67 614.19,904.33 620.53,900.67" fill="#111111"/><circle cx="641.07" cy="908.00" r="6.98" fill="#111111"/><circle cx="682.13" cy="908.00" r="6.98" fill="#111111"/><circle cx="723.20" cy="908.00" r="6.98" fill="#111111"/><circle cx="764.27" cy="908.00" r="6.98" fill="#111111"/><polygon points="791.15,904.33 791.15,911.67 784.80,915.33 778.45,911.67 778.45,904.33 784.80,900.67" fill="#111111"/><circle cx="825.87" cy="908.00" r="6.98" fill="#111111"/><circle cx="846.40" cy="908.00" r="6.98" fill="#111111"/><circle cx="928.53" cy="908.00" r="6.98" fill="#111111"/><circle cx="394.67" cy="928.53" r="6.98" fill="#111111"/><polygon points="442.08,924.87 442.08,932.20 435.73,935.86 429.39,932.20 429.39,924.87 435.73,921.20" fill="#111111"/><circle cx="476.80" cy="928.53" r="6.98" fill="#111111"/><circle cx="497.33" cy="928.53" r="6.98" fill="#111111"/><polygon points="524.21,924.87 524.21,932.20 517.87,935.86 511.52,932.20 511.52,924.87 517.87,921.20" fill="#111111"/><circle cx="538.40" cy="928.53" r="6.98" fill="#111111"/><circle cx="558.93" cy="928.53" r="6.98" fill="#111111"/><circle cx="579.47" cy="928.53" r="6.98" fill="#111111"/><circle cx="641.07" cy="928.53" r="6.98" fill="#111111"/><circle cx="661.60" cy="928.53" r="6.98" fill="#111111"/><polygon points="688.48,924.87 688.48,932.20 682.13,935.86 675.79,932.20 675.79,924.87 682.13,921.20" fill="#111111"/><circle cx="702.67" cy="928.53" r="6.98" fill="#111111"/><circle cx="784.80" cy="928.53" r="6.98" fill="#111111"/><circle cx="825.87" cy="928.53" r="6.98" fill="#111111"/><polygon points="852.75,924.87 852.75,932.20 846.40,935.86 840.05,932.20 840.05,924.87 846.40,921.20" fill="#111111"/><circle cx="866.93" cy="928.53" r="6.98" fill="#111111"/><circle cx="887.47" cy="928.53" r="6.98" fill="#111111"/><circle cx="908.00" cy="928.53" r="6.98" fill="#111111"/><circle cx="374.13" cy="949.07" r="6.98" fill="#111111"/><polygon points="421.55,945.40 421.55,952.73 415.20,956.40 408.85,952.73 408.85,945.40 415.20,941.74" fill="#111111"/><circle cx="435.73" cy="949.07" r="6.98" fill="#111111"/><circle cx="456.27" cy="949.07" r="6.98" fill="#111111"/><circle cx="476.80" cy="949.07" r="6.98" fill="#111111"/><circle cx="538.40" cy="949.07" r="6.98" fill="#111111"/><polygon points="585.81,945.40 585.81,952.73 579.47,956.40 573.12,952.73 573.12,945.40 579.47,941.74" fill="#111111"/><circle cx="620.53" cy="949.07" r="6.98" fill="#111111"/><polygon points="667.95,945.40 667.95,952.73 661.60,956.40 655.25,952.73 655.25,945.40 661.60,941.74" fill="#111111"/><circle cx="723.20" cy="949.07" r="6.98" fill="#111111"/><polygon points="750.08,945.40 750.08,952.73 743.73,956.40 737.39,952.73 737.39,945.40 743.73,941.74" fill="#111111"/><circle cx="764.27" cy="949.07" r="6.98" fill="#111111"/><polygon points="832.21,945.40 832.21,952.73 825.87,956.40 819.52,952.73 819.52,945.40 825.87,941.74" fill="#111111"/><circle cx="353.60" cy="969.60" r="6.98" fill="#111111"/><polygon points="483.15,965.93 483.15,973.27 476.80,976.93 470.45,973.27 470.45,965.93 476.80,962.27" fill="#111111"/><circle cx="497.33" cy="969.60" r="6.98" fill="#111111"/><circle cx="517.87" cy="969.60" r="6.98" fill="#111111"/><circle cx="600.00" cy="969.60" r="6.98" fill="#111111"/><circle cx="620.53" cy="969.60" r="6.98" fill="#111111"/><circle cx="661.60" cy="969.60" r="6.98" fill="#111111"/><circle cx="702.67" cy="969.60" r="6.98" fill="#111111"/><polygon points="729.55,965.93 729.55,973.27 723.20,976.93 716.85,973.27 716.85,965.93 723.20,962.27" fill="#111111"/><circle cx="743.73" cy="969.60" r="6.98" fill="#111111"/><circle cx="825.87" cy="969.60" r="6.98" fill="#111111"/><circle cx="846.40" cy="969.60" r="6.98" fill="#111111"/><circle cx="866.93" cy="969.60" r="6.98" fill="#111111"/><circle cx="394.67" cy="990.13" r="6.98" fill="#111111"/><circle cx="435.73" cy="990.13" r="6.98" fill="#111111"/><polygon points="462.61,986.47 462.61,993.80 456.27,997.46 449.92,993.80 449.92,986.47 456.27,982.80" fill="#111111"/><circle cx="476.80" cy="990.13" r="6.98" fill="#111111"/><circle cx="497.33" cy="990.13" r="6.98" fill="#111111"/><circle cx="517.87" cy="990.13" r="6.98" fill="#111111"/><circle cx="579.47" cy="990.13" r="6.98" fill="#111111"/><circle cx="641.07" cy="990.13" r="6.98" fill="#111111"/><circle cx="743.73" cy="990.13" r="6.98" fill="#111111"/><circle cx="764.27" cy="990.13" r="6.98" fill="#111111"/><circle cx="805.33" cy="990.13" r="6.98" fill="#111111"/><circle cx="456.27" cy="1010.67" r="6.98" fill="#111111"/><circle cx="497.33" cy="1010.67" r="6.98" fill="#111111"/><circle cx="538.40" cy="1010.67" r="6.98" fill="#111111"/><circle cx="579.47" cy="1010.67" r="6.98" fill="#111111"/><circle cx="620.53" cy="1010.67" r="6.98" fill="#111111"/><circle cx="641.07" cy="1010.67" r="6.98" fill="#111111"/><circle cx="723.20" cy="1010.67" r="6.98" fill="#111111"/><polygon points="770.61,1007.00 770.61,1014.33 764.27,1018.00 757.92,1014.33 757.92,1007.00 764.27,1003.34" fill="#111111"/></g><polygon points="644.46,574.33 644.46,625.67 600.00,651.33 555.54,625.67 555.54,574.33 600.00,548.67" fill="#e8e8e8" stroke="#111111" stroke-width="2"/><polygon points="625.78,585.11 625.78,614.89 600.00,629.77 574.22,614.89 574.22,585.11 600.00,570.23" fill="#d4d4d4" stroke="#111111" stroke-width="1.5"/><polygon points="640.90,576.39 640.90,583.57 634.68,587.17 628.45,583.57 628.45,576.39 634.68,572.79" fill="#111111" opacity="0.35"/><polygon points="640.90,616.43 640.90,623.61 634.68,627.21 628.45,623.61 628.45,616.43 634.68,612.83" fill="#111111" opacity="0.35"/><polygon points="606.22,636.45 606.22,643.63 600.00,647.23 593.78,643.63 593.78,636.45 600.00,632.85" fill="#111111" opacity="0.35"/><polygon points="571.55,616.43 571.55,623.61 565.32,627.21 559.10,623.61 559.10,616.43 565.32,612.83" fill="#111111" opacity="0.35"/><polygon points="571.55,576.39 571.55,583.57 565.32,587.17 559.10,583.57 559.10,576.39 565.32,572.79" fill="#111111" opacity="0.35"/><polygon points="606.22,556.37 606.22,563.55 600.00,567.15 593.78,563.55 593.78,556.37 600.00,552.77" fill="#111111" opacity="0.35"/><text x="600" y="1140" text-anchor="middle" font-family="Arial, Helvetica, sans-serif" font-size="20" font-weight="700" letter-spacing="4" fill="#E86B1A">ALIBARBAR</text></svg>