<svg xmlns="http://www.w3.org/2000/svg" width="1400" height="1400" viewBox="0 0 1400 1400"><circle cx="700" cy="700" r="672" fill="none" stroke="#222" stroke-width="2"/><path d="M 482.13 101.42 A 637 637 0 0 1 1315.29 535.13" fill="none" stroke="#E36A1A" stroke-width="36" stroke-linecap="butt"/><path d="M 1337.00 700.00 A 637 637 0 0 1 917.87 1298.58" fill="none" stroke="#E36A1A" stroke-width="36" stroke-linecap="butt"/><path d="M 755.52 1334.58 A 637 637 0 0 1 249.57 1150.43" fill="none" stroke="#E36A1A" stroke-width="36" stroke-linecap="butt"/><path d="M 148.34 1018.50 A 637 637 0 0 1 334.63 178.20" fill="none" stroke="#E36A1A" stroke-width="36" stroke-linecap="butt"/><path d="M 482.13 101.42 A 637 637 0 0 1 1251.66 381.50" fill="none" stroke="#E36A1A" stroke-width="36" stroke-linecap="butt"/><circle cx="700" cy="700" r="585.1999999999999" fill="none" stroke="#D45F14" stroke-width="4"/><polygon points="762.35,664.00 762.35,736.00 700.00,772.00 637.65,736.00 637.65,664.00 700.00,628.00" fill="#ffffff" fill-opacity="0.92" stroke="#111" stroke-width="3"/><polygon points="738.66,677.68 738.66,722.32 700.00,744.64 661.34,722.32 661.34,677.68 700.00,655.36" fill="#5a5a5a"/><polygon points="712.12,645.00 712.12,659.00 700.00,666.00 687.88,659.00 687.88,645.00 700.00,638.00" fill="#fff" stroke="#111" stroke-width="2.5"/><circle cx="700.00" cy="652.00" r="3.5" fill="#111"/><polygon points="757.78,678.17 757.78,692.17 745.65,699.17 733.53,692.17 733.53,678.17 745.65,671.17" fill="#fff" stroke="#111" stroke-width="2.5"/><circle cx="745.65" cy="685.17" r="3.5" fill="#111"/><polygon points="740.34,731.83 740.34,745.83 728.21,752.83 716.09,745.83 716.09,731.83 728.21,724.83" fill="#fff" stroke="#111" stroke-width="2.5"/><circle cx="728.21" cy="738.83" r="3.5" fill="#111"/><polygon points="683.91,731.83 683.91,745.83 671.79,752.83 659.66,745.83 659.66,731.83 671.79,724.83" fill="#fff" stroke="#111" stroke-width="2.5"/><circle cx="671.79" cy="738.83" r="3.5" fill="#111"/><polygon points="666.47,678.17 666.47,692.17 654.35,699.17 642.22,692.17 642.22,678.17 654.35,671.17" fill="#fff" stroke="#111" stroke-width="2.5"/><circle cx="654.35" cy="685.17" r="3.5" fill="#111"/></svg>