<svg xmlns="http://www.w3.org/2000/svg" width="1400" height="1400" viewBox="0 0 1400 1400"><defs><clipPath id="disc"><circle cx="700" cy="700" r="679"/></clipPath></defs><rect width="1400" height="1400" fill="#ffffff"/><circle cx="700" cy="700" r="679" fill="#ffffff"/><g clip-path="url(#disc)"><path d="M 778.14 63.58 A 641.2 641.2 0 0 1 1212.09 314.12" fill="none" stroke="#F07828" stroke-width="54" stroke-linecap="butt"/><path d="M 1290.23 449.46 A 641.2 641.2 0 0 1 1290.23 950.54" fill="none" stroke="#F07828" stroke-width="54" stroke-linecap="butt"/><path d="M 1212.09 1085.88 A 641.2 641.2 0 0 1 778.14 1336.42" fill="none" stroke="#F07828" stroke-width="54" stroke-linecap="butt"/><path d="M 621.86 1336.42 A 641.2 641.2 0 0 1 187.91 1085.88" fill="none" stroke="#F07828" stroke-width="54" stroke-linecap="butt"/><path d="M 109.77 950.54 A 641.2 641.2 0 0 1 109.77 449.46" fill="none" stroke="#F07828" stroke-width="54" stroke-linecap="butt"/><path d="M 187.91 314.12 A 641.2 641.2 0 0 1 621.86 63.58" fill="none" stroke="#F07828" stroke-width="54" stroke-linecap="butt"/><circle cx="700" cy="700" r="588" fill="none" stroke="#E86A1C" stroke-width="8"/><polygon points="808.25,637.50 808.25,762.50 700.00,825.00 591.75,762.50 591.75,637.50 700.00,575.00" fill="#1a1a1a"/><polygon points="750.23,371.00 750.23,429.00 700.00,458.00 649.77,429.00 649.77,371.00 700.00,342.00" fill="#ffffff" stroke="#1a1a1a" stroke-width="16"/><circle cx="700.0" cy="400.0" r="14" fill="#1a1a1a"/><polygon points="1010.04,821.00 1010.04,879.00 959.81,908.00 909.58,879.00 909.58,821.00 959.81,792.00" fill="#ffffff" stroke="#1a1a1a" stroke-width="16"/><circle cx="959.8" cy="850.0" r="14" fill="#1a1a1a"/><polygon points="490.42,821.00 490.42,879.00 440.19,908.00 389.96,879.00 389.96,821.00 440.19,792.00" fill="#ffffff" stroke="#1a1a1a" stroke-width="16"/><circle cx="440.2" cy="850.0" r="14" fill="#1a1a1a"/><circle cx="665.0" cy="505.0" r="14" fill="#1a1a1a"/><circle cx="755.0" cy="470.0" r="16" fill="#1a1a1a"/><circle cx="795.0" cy="500.0" r="19" fill="#1a1a1a"/><circle cx="775.0" cy="535.0" r="14" fill="#1a1a1a"/><circle cx="725.0" cy="555.0" r="15" fill="#1a1a1a"/><circle cx="580.0" cy="620.0" r="13" fill="#1a1a1a"/><circle cx="540.0" cy="660.0" r="15" fill="#1a1a1a"/><circle cx="555.0" cy="710.0" r="16" fill="#1a1a1a"/><circle cx="510.0" cy="755.0" r="16" fill="#1a1a1a"/><circle cx="545.0" cy="795.0" r="13" fill="#1a1a1a"/><circle cx="500.0" cy="830.0" r="15" fill="#1a1a1a"/><circle cx="580.0" cy="860.0" r="15" fill="#1a1a1a"/><circle cx="830.0" cy="660.0" r="13" fill="#1a1a1a"/><circle cx="875.0" cy="710.0" r="12" fill="#1a1a1a"/><circle cx="910.0" cy="755.0" r="18" fill="#1a1a1a"/><circle cx="865.0" cy="795.0" r="19" fill="#1a1a1a"/><circle cx="900.0" cy="840.0" r="16" fill="#1a1a1a"/><circle cx="845.0" cy="875.0" r="15" fill="#1a1a1a"/><circle cx="930.0" cy="810.0" r="13" fill="#1a1a1a"/><circle cx="800.0" cy="900.0" r="19" fill="#1a1a1a"/><circle cx="740.0" cy="915.0" r="16" fill="#1a1a1a"/><circle cx="660.0" cy="900.0" r="13" fill="#1a1a1a"/><circle cx="700.0" cy="860.0" r="15" fill="#1a1a1a"/><circle cx="620.0" cy="550.0" r="14" fill="#1a1a1a"/></g></svg>